<svg width="616" height="370" viewBox="0 0 616 370" fill="none" xmlns="http://www.w3.org/2000/svg">
<g clip-path="url(#clip0_1200_480)">
<path d="M32.1395 369.16C32.0983 368.979 28.1128 350.823 36.2522 335.744C44.3915 320.666 61.7656 314.016 61.9402 313.95L62.7342 313.652L62.9218 314.479C62.963 314.66 66.9485 332.816 58.8091 347.895C50.6702 362.974 33.2957 369.624 33.1211 369.689L32.3267 369.987L32.1395 369.16ZM61.6453 315.67C58.1651 317.165 44.4298 323.711 37.5555 336.446C30.6804 349.183 32.7546 364.245 33.416 367.969C36.8948 366.477 50.6246 359.942 57.5058 347.193C64.3805 334.457 62.307 319.397 61.6453 315.67Z" fill="#F1F1F1"/>
<path d="M52.5892 342.607C37.9624 351.398 32.3291 368.859 32.3291 368.859C32.3291 368.859 50.4106 372.068 65.0374 363.277C79.6642 354.486 85.2974 337.024 85.2974 337.024C85.2974 337.024 67.2159 333.816 52.5892 342.607Z" fill="#F1F1F1"/>
<path d="M274.094 201.678C274.317 200.528 274.285 199.343 274 198.206C273.715 197.07 273.184 196.01 272.444 195.101C271.704 194.191 270.774 193.455 269.719 192.944C268.664 192.433 267.509 192.159 266.337 192.142L259.563 175.125L248.208 176.715L258.111 200.611C258.213 202.581 259.034 204.445 260.419 205.851C261.805 207.256 263.658 208.105 265.628 208.237C267.598 208.368 269.548 207.773 271.108 206.564C272.669 205.355 273.731 203.617 274.094 201.678Z" fill="#9F616A"/>
<path d="M253.173 195.699L249.654 187.318L227.729 145.624L228.921 68.4756L229.15 68.4453C243.179 66.5936 252.672 131.172 253.069 133.922L266.922 181.253L270.22 191.685L253.173 195.699Z" fill="#8DE392"/>
<path d="M219.483 358.379L230.143 358.378L235.214 317.301L219.48 317.302L219.483 358.379Z" fill="#9F616A"/>
<path d="M216.764 354.903L237.758 354.902H237.759C241.307 354.903 244.71 356.311 247.219 358.817C249.728 361.324 251.138 364.723 251.138 368.268V368.702L216.764 368.703L216.764 354.903Z" fill="#2F2E41"/>
<path d="M121.463 342.153L130.21 348.242L157.88 317.438L144.971 308.451L121.463 342.153Z" fill="#9F616A"/>
<path d="M121.223 337.748L138.448 349.739L138.448 349.739C141.359 351.766 143.345 354.865 143.969 358.354C144.593 361.844 143.804 365.438 141.776 368.346L141.527 368.703L113.325 349.07L121.223 337.748Z" fill="#2F2E41"/>
<path d="M213.624 348.725L213.163 271.667L206.455 223.214L193.95 265.824L193.925 265.859L148.607 331.585L130.973 322.659L131.069 322.43C132.147 319.869 157.54 259.73 164.366 259.73C164.962 259.771 165.559 259.668 166.106 259.427C166.653 259.187 167.134 258.818 167.506 258.351C169.509 255.679 167.878 250.008 167.861 249.951C165.907 241.857 170.82 239.101 171.799 238.64L174.431 184.367L174.703 184.386L246.051 189.385L243.058 257.242L236.619 346.146L236.398 346.172L213.624 348.725Z" fill="#2F2E41"/>
<path d="M247.142 201.411L246.833 201.386L170.101 195.207L170.29 169.844L174.046 103.621L174.067 103.575L189.362 70.404L200.204 65.4996L216.022 64.668L216.06 64.6776L230.496 68.2506L245.514 175.943L247.142 201.411Z" fill="#90E195"/>
<path d="M218.5 56.1671C228.29 50.8206 231.888 38.5578 226.536 28.7774C221.184 18.997 208.909 15.4026 199.119 20.749C189.328 26.0955 185.73 38.3583 191.082 48.1387C196.434 57.9192 208.709 61.5136 218.5 56.1671Z" fill="#9F616A"/>
<path d="M188.492 43.5233V35.6598C188.492 35.6598 182.144 28.1911 189.127 26.3098C189.127 26.3098 191.031 7.49611 207.536 16.2758C207.536 16.2758 230.388 12.5131 227.849 25.6827C227.849 25.6827 233.562 22.2445 231.658 31.0242L227.975 45.1668C227.975 45.1668 229.753 35.8246 224.04 34.5703L220.866 32.689C220.866 32.689 211.979 41.4687 198.648 30.8076C198.648 30.8076 192.935 29.4454 193.57 35.0895C194.205 40.7336 188.492 43.5233 188.492 43.5233Z" fill="#2F2E41"/>
<path d="M206.706 182.47C206.718 181.299 206.474 180.139 205.989 179.072C205.505 178.005 204.792 177.057 203.901 176.295C203.01 175.534 201.963 174.976 200.833 174.662C199.703 174.348 198.518 174.286 197.362 174.479L187.641 158.953L176.756 162.553L190.791 184.286C191.245 186.206 192.387 187.892 194.003 189.027C195.618 190.161 197.594 190.664 199.556 190.44C201.517 190.216 203.329 189.281 204.647 187.812C205.964 186.343 206.697 184.443 206.706 182.47Z" fill="#9F616A"/>
<path d="M181.6 177.576L164.015 141.909L164.03 141.822C164.101 141.428 171.18 102.163 176.594 87.7306C182.042 73.2068 189.5 70.2908 189.814 70.1737L189.972 70.1152L196.659 76.5227L187.396 138.287L197.38 168.074L181.6 177.576Z" fill="#81DD86"/>
<path d="M616 0H581.951V34.0146H616V0Z" fill="#F1F1F1"/>
<path d="M349.528 132.361H315.479V166.376H349.528V132.361Z" fill="#F1F1F1"/>
<path d="M334.59 151.471H603.782V15.332H334.59V151.471Z" fill="white"/>
<path d="M606.003 153.689H332.369V13.1133H606.003V153.689ZM336.81 149.252H601.562V17.55H336.81V149.252Z" fill="#E5E5E5"/>
<path d="M574.014 63.0859H366.901V69.9474H574.014V63.0859Z" fill="#E5E5E5"/>
<path d="M574.014 79.7266H366.901V86.588H574.014V79.7266Z" fill="#E5E5E5"/>
<path d="M574.015 104.295H535.524V110.249H574.015V104.295Z" fill="#488A4C"/>
<path d="M282.757 369.957H0.740201C0.543888 369.957 0.355614 369.879 0.216799 369.741C0.0779847 369.602 0 369.414 0 369.218C0 369.022 0.0779847 368.834 0.216799 368.695C0.355614 368.556 0.543888 368.479 0.740201 368.479H282.757C282.953 368.479 283.142 368.556 283.28 368.695C283.419 368.834 283.497 369.022 283.497 369.218C283.497 369.414 283.419 369.602 283.28 369.741C283.142 369.879 282.953 369.957 282.757 369.957Z" fill="#CBCBCB"/>
</g>
<defs>
<clipPath id="clip0_1200_480">
<rect width="616" height="369.987" fill="white"/>
</clipPath>
</defs>
</svg>
