<svg width="100" height="100" viewBox="0 0 100 100" fill="none" xmlns="http://www.w3.org/2000/svg">
<path d="M58.2499 17.6286C60.1241 17.6286 61.6435 15.5396 61.6435 12.9627C61.6435 10.3859 60.1241 8.29688 58.2499 8.29688C56.3758 8.29688 54.8564 10.3859 54.8564 12.9627C54.8564 15.5396 56.3758 17.6286 58.2499 17.6286Z" fill="#F2F2F2"/>
<path d="M84.5743 86.876C89.6183 81.5936 92.0275 72.7171 90.5193 64.2494C90.4818 64.039 90.4422 63.8291 90.4006 63.6196C89.4007 58.5933 86.9269 53.8162 83.3215 52.2102C80.2941 50.8617 76.9897 51.8987 73.8315 51.3624C67.6316 50.3097 62.8251 43.4125 59.443 36.191C56.061 28.9695 53.4618 20.8861 48.9677 14.9201C41.5601 5.08615 29.4764 2.9689 20.292 9.37006C11.1076 15.7712 5.2572 29.9728 5.5067 44.1264C5.75621 58.28 11.8673 71.8118 20.7421 78.9913C24.0023 81.6288 27.7731 83.4972 31.5258 82.8434C34.7819 82.2761 37.7405 79.8705 40.9814 79.1563C46.0767 78.0335 51.1396 81.201 55.5467 84.8922C59.9537 88.5833 64.2107 92.9585 69.2187 94.6697C74.0815 96.3313 80.106 91.5554 84.5743 86.876Z" fill="#F2F2F2"/>
<path d="M77.3275 9.667C77.2169 9.56564 77.105 9.46953 76.9945 9.37167C73.7982 6.56101 70.3723 4.27765 66.7876 2.56878L65.9564 18.3344H60.687V0.267362C60.3553 0.172999 60.0211 0.0838785 59.6868 0V18.3344H53.4249C49.9776 18.3344 46.6716 16.4516 44.234 13.1C41.7964 9.74852 40.427 5.20287 40.427 0.463099C40.0915 0.562705 39.7585 0.669285 39.4255 0.78287V18.3344H34.3252L33.5334 3.30097C29.8496 5.24351 26.3523 7.79804 23.1194 10.9077C23.0634 10.9601 23.0075 11.0143 22.9529 11.0667C22.672 11.3376 22.3949 11.6137 22.1191 11.8933V72.0394H37.1505L36.8849 66.9805L35.4233 39.2045H64.857L63.3954 66.9805L63.1298 72.0394H77.9947V10.2751C77.7735 10.0689 77.5511 9.86621 77.3275 9.667ZM39.4255 34.6173H35.1819L34.3977 19.7114H39.4255V34.6173ZM59.6868 34.6173H52.5594V34.322C52.5594 34.1801 52.5391 34.0395 52.4995 33.9083C52.4599 33.7772 52.402 33.6581 52.3289 33.5578C52.2558 33.4575 52.1691 33.378 52.0737 33.3238C51.9782 33.2696 51.8759 33.2419 51.7727 33.2421H48.6741C48.571 33.242 48.4688 33.2699 48.3735 33.3242C48.2782 33.3784 48.1916 33.458 48.1187 33.5583C48.0457 33.6586 47.9879 33.7776 47.9484 33.9087C47.909 34.0397 47.8887 34.1802 47.8887 34.322V34.6173H40.427V19.7114H59.6868V34.6173ZM60.6871 34.6173V19.7114H65.8839L65.0998 34.6173H60.6871Z" fill="#3F3D56"/>
<path d="M0 75.8906C1.1041 77.6894 2.2983 79.3798 3.57388 80.9495L96.4261 81.1243C97.7017 79.5546 98.8959 77.8641 100 76.0654L0 75.8906Z" fill="#3F3D56"/>
<path d="M62.9658 59.6917V74.6682C62.9659 74.859 63.0211 75.042 63.1193 75.177C63.2174 75.3119 63.3505 75.3878 63.4893 75.388H79.6308C79.7696 75.3878 79.9027 75.3119 80.0009 75.177C80.099 75.042 80.1542 74.859 80.1543 74.6682V59.6917C80.154 59.501 80.0987 59.3182 80.0006 59.1835C79.9025 59.0487 79.7695 58.9729 79.6308 58.9727H63.4893C63.3506 58.9729 63.2177 59.0487 63.1195 59.1835C63.0214 59.3182 62.9662 59.501 62.9658 59.6917Z" fill="#3F3D56"/>
<path d="M63.3447 59.8777V74.4831C63.3449 74.5851 63.3744 74.6828 63.4268 74.7549C63.4793 74.827 63.5503 74.8676 63.6245 74.8678H79.4967C79.5709 74.8676 79.6419 74.827 79.6944 74.7549C79.7468 74.6828 79.7763 74.5851 79.7765 74.4831V59.8777C79.7765 59.7756 79.747 59.6777 79.6946 59.6054C79.6421 59.5331 79.5709 59.4924 79.4967 59.4922H63.6245C63.5503 59.4924 63.4791 59.5331 63.4267 59.6054C63.3742 59.6777 63.3447 59.7756 63.3447 59.8777Z" fill="#00BFA6" fill-opacity="0.75"/>
<path d="M62.6282 77.5886C62.6577 77.6396 62.6953 77.6807 62.7381 77.7089C62.7809 77.737 62.8277 77.7515 62.8752 77.7511H80.1589C80.2062 77.7511 80.2528 77.7365 80.2955 77.7085C80.3381 77.6805 80.3757 77.6398 80.4055 77.5893C80.4353 77.5388 80.4565 77.4799 80.4676 77.4167C80.4787 77.3535 80.4795 77.2878 80.4698 77.2242L80.2015 75.4719C80.1904 75.4005 80.1664 75.334 80.1318 75.2785C80.0972 75.223 80.0531 75.1803 80.0035 75.1543C79.9675 75.1349 79.9292 75.1249 79.8906 75.125H63.1424C63.1038 75.1249 63.0655 75.1349 63.0295 75.1543C62.9799 75.1803 62.9357 75.223 62.9011 75.2785C62.8666 75.334 62.8426 75.4005 62.8315 75.4719L62.5632 77.2242C62.5537 77.2877 62.5545 77.3534 62.5658 77.4165C62.577 77.4795 62.5983 77.5383 62.6282 77.5886Z" fill="#2F2E41"/>
<path d="M79.2983 75.8809H79.7065C79.7408 75.8809 79.7686 75.8427 79.7686 75.7956V75.527C79.7686 75.4799 79.7408 75.4417 79.7065 75.4417H79.2983C79.264 75.4417 79.2362 75.4799 79.2362 75.527V75.7956C79.2362 75.8427 79.264 75.8809 79.2983 75.8809Z" fill="#3F3D56"/>
<path d="M78.2328 75.8809H78.6411C78.6753 75.8809 78.7031 75.8427 78.7031 75.7956V75.527C78.7031 75.4799 78.6753 75.4417 78.6411 75.4417H78.2328C78.1986 75.4417 78.1708 75.4799 78.1708 75.527V75.7956C78.1708 75.8427 78.1986 75.8809 78.2328 75.8809Z" fill="#3F3D56"/>
<path d="M77.1684 75.8809H77.5766C77.6109 75.8809 77.6387 75.8427 77.6387 75.7956V75.527C77.6387 75.4799 77.6109 75.4417 77.5766 75.4417H77.1684C77.1341 75.4417 77.1063 75.4799 77.1063 75.527V75.7956C77.1063 75.8427 77.1341 75.8809 77.1684 75.8809Z" fill="#3F3D56"/>
<path d="M76.1039 75.8809H76.5122C76.5464 75.8809 76.5742 75.8427 76.5742 75.7956V75.527C76.5742 75.4799 76.5464 75.4417 76.5122 75.4417H76.1039C76.0697 75.4417 76.0419 75.4799 76.0419 75.527V75.7956C76.0419 75.8427 76.0697 75.8809 76.1039 75.8809Z" fill="#3F3D56"/>
<path d="M75.0395 75.8809H75.4477C75.482 75.8809 75.5098 75.8427 75.5098 75.7956V75.527C75.5098 75.4799 75.482 75.4417 75.4477 75.4417H75.0395C75.0052 75.4417 74.9774 75.4799 74.9774 75.527V75.7956C74.9774 75.8427 75.0052 75.8809 75.0395 75.8809Z" fill="#3F3D56"/>
<path d="M73.975 75.8809H74.3833C74.4175 75.8809 74.4453 75.8427 74.4453 75.7956V75.527C74.4453 75.4799 74.4175 75.4417 74.3833 75.4417H73.975C73.9408 75.4417 73.913 75.4799 73.913 75.527V75.7956C73.913 75.8427 73.9408 75.8809 73.975 75.8809Z" fill="#3F3D56"/>
<path d="M72.9096 75.8809H73.3178C73.3521 75.8809 73.3799 75.8427 73.3799 75.7956V75.527C73.3799 75.4799 73.3521 75.4417 73.3178 75.4417H72.9096C72.8753 75.4417 72.8476 75.4799 72.8476 75.527V75.7956C72.8476 75.8427 72.8753 75.8809 72.9096 75.8809Z" fill="#3F3D56"/>
<path d="M71.8451 75.8809H72.2534C72.2876 75.8809 72.3154 75.8427 72.3154 75.7956V75.527C72.3154 75.4799 72.2876 75.4417 72.2534 75.4417H71.8451C71.8109 75.4417 71.7831 75.4799 71.7831 75.527V75.7956C71.7831 75.8427 71.8109 75.8809 71.8451 75.8809Z" fill="#3F3D56"/>
<path d="M70.7807 75.8809H71.1889C71.2232 75.8809 71.251 75.8427 71.251 75.7956V75.527C71.251 75.4799 71.2232 75.4417 71.1889 75.4417H70.7807C70.7464 75.4417 70.7186 75.4799 70.7186 75.527V75.7956C70.7186 75.8427 70.7464 75.8809 70.7807 75.8809Z" fill="#3F3D56"/>
<path d="M69.7162 75.8809H70.1245C70.1587 75.8809 70.1865 75.8427 70.1865 75.7956V75.527C70.1865 75.4799 70.1587 75.4417 70.1245 75.4417H69.7162C69.682 75.4417 69.6542 75.4799 69.6542 75.527V75.7956C69.6542 75.8427 69.682 75.8809 69.7162 75.8809Z" fill="#3F3D56"/>
<path d="M68.6508 75.8809H69.0591C69.0933 75.8809 69.1211 75.8427 69.1211 75.7956V75.527C69.1211 75.4799 69.0933 75.4417 69.0591 75.4417H68.6508C68.6165 75.4417 68.5888 75.4799 68.5888 75.527V75.7956C68.5888 75.8427 68.6165 75.8809 68.6508 75.8809Z" fill="#3F3D56"/>
<path d="M67.5864 75.8809H67.9946C68.0289 75.8809 68.0566 75.8427 68.0566 75.7956V75.527C68.0566 75.4799 68.0289 75.4417 67.9946 75.4417H67.5864C67.5521 75.4417 67.5243 75.4799 67.5243 75.527V75.7956C67.5243 75.8427 67.5521 75.8809 67.5864 75.8809Z" fill="#3F3D56"/>
<path d="M66.5219 75.8809H66.9301C66.9644 75.8809 66.9922 75.8427 66.9922 75.7956V75.527C66.9922 75.4799 66.9644 75.4417 66.9301 75.4417H66.5219C66.4876 75.4417 66.4599 75.4799 66.4599 75.527V75.7956C66.4599 75.8427 66.4876 75.8809 66.5219 75.8809Z" fill="#3F3D56"/>
<path d="M65.4574 75.8809H65.8657C65.9 75.8809 65.9277 75.8427 65.9277 75.7956V75.527C65.9277 75.4799 65.9 75.4417 65.8657 75.4417H65.4574C65.4232 75.4417 65.3954 75.4799 65.3954 75.527V75.7956C65.3954 75.8427 65.4232 75.8809 65.4574 75.8809Z" fill="#3F3D56"/>
<path d="M64.393 75.8809H64.8012C64.8355 75.8809 64.8633 75.8427 64.8633 75.7956V75.527C64.8633 75.4799 64.8355 75.4417 64.8012 75.4417H64.393C64.3587 75.4417 64.331 75.4799 64.331 75.527V75.7956C64.331 75.8427 64.3587 75.8809 64.393 75.8809Z" fill="#3F3D56"/>
<path d="M63.3276 75.8809H63.7358C63.7701 75.8809 63.7979 75.8427 63.7979 75.7956V75.527C63.7979 75.4799 63.7701 75.4417 63.7358 75.4417H63.3276C63.2933 75.4417 63.2655 75.4799 63.2655 75.527V75.7956C63.2655 75.8427 63.2933 75.8809 63.3276 75.8809Z" fill="#3F3D56"/>
<path d="M79.311 76.6113H79.7192C79.7535 76.6113 79.7812 76.5731 79.7812 76.526V76.2575C79.7812 76.2104 79.7535 76.1722 79.7192 76.1722H79.311C79.2767 76.1722 79.2489 76.2104 79.2489 76.2575V76.526C79.2489 76.5731 79.2767 76.6113 79.311 76.6113Z" fill="#3F3D56"/>
<path d="M78.2455 76.6113H78.6538C78.688 76.6113 78.7158 76.5731 78.7158 76.526V76.2575C78.7158 76.2104 78.688 76.1722 78.6538 76.1722H78.2455C78.2113 76.1722 78.1835 76.2104 78.1835 76.2575V76.526C78.1835 76.5731 78.2113 76.6113 78.2455 76.6113Z" fill="#3F3D56"/>
<path d="M77.1811 76.6113H77.5893C77.6236 76.6113 77.6514 76.5731 77.6514 76.526V76.2575C77.6514 76.2104 77.6236 76.1722 77.5893 76.1722H77.1811C77.1468 76.1722 77.119 76.2104 77.119 76.2575V76.526C77.119 76.5731 77.1468 76.6113 77.1811 76.6113Z" fill="#3F3D56"/>
<path d="M76.1166 76.6113H76.5249C76.5591 76.6113 76.5869 76.5731 76.5869 76.526V76.2575C76.5869 76.2104 76.5591 76.1722 76.5249 76.1722H76.1166C76.0824 76.1722 76.0546 76.2104 76.0546 76.2575V76.526C76.0546 76.5731 76.0824 76.6113 76.1166 76.6113Z" fill="#3F3D56"/>
<path d="M75.0522 76.6113H75.4604C75.4947 76.6113 75.5225 76.5731 75.5225 76.526V76.2575C75.5225 76.2104 75.4947 76.1722 75.4604 76.1722H75.0522C75.0179 76.1722 74.9901 76.2104 74.9901 76.2575V76.526C74.9901 76.5731 75.0179 76.6113 75.0522 76.6113Z" fill="#3F3D56"/>
<path d="M73.9877 76.6113H74.396C74.4302 76.6113 74.458 76.5731 74.458 76.526V76.2575C74.458 76.2104 74.4302 76.1722 74.396 76.1722H73.9877C73.9535 76.1722 73.9257 76.2104 73.9257 76.2575V76.526C73.9257 76.5731 73.9535 76.6113 73.9877 76.6113Z" fill="#3F3D56"/>
<path d="M72.9223 76.6113H73.3305C73.3648 76.6113 73.3926 76.5731 73.3926 76.526V76.2575C73.3926 76.2104 73.3648 76.1722 73.3305 76.1722H72.9223C72.888 76.1722 72.8602 76.2104 72.8602 76.2575V76.526C72.8602 76.5731 72.888 76.6113 72.9223 76.6113Z" fill="#3F3D56"/>
<path d="M71.8578 76.6113H72.2661C72.3003 76.6113 72.3281 76.5731 72.3281 76.526V76.2575C72.3281 76.2104 72.3003 76.1722 72.2661 76.1722H71.8578C71.8236 76.1722 71.7958 76.2104 71.7958 76.2575V76.526C71.7958 76.5731 71.8236 76.6113 71.8578 76.6113Z" fill="#3F3D56"/>
<path d="M70.7934 76.6113H71.2016C71.2359 76.6113 71.2637 76.5731 71.2637 76.526V76.2575C71.2637 76.2104 71.2359 76.1722 71.2016 76.1722H70.7934C70.7591 76.1722 70.7313 76.2104 70.7313 76.2575V76.526C70.7313 76.5731 70.7591 76.6113 70.7934 76.6113Z" fill="#3F3D56"/>
<path d="M69.7289 76.6113H70.1372C70.1714 76.6113 70.1992 76.5731 70.1992 76.526V76.2575C70.1992 76.2104 70.1714 76.1722 70.1372 76.1722H69.7289C69.6947 76.1722 69.6669 76.2104 69.6669 76.2575V76.526C69.6669 76.5731 69.6947 76.6113 69.7289 76.6113Z" fill="#3F3D56"/>
<path d="M68.6635 76.6113H69.0717C69.106 76.6113 69.1338 76.5731 69.1338 76.526V76.2575C69.1338 76.2104 69.106 76.1722 69.0717 76.1722H68.6635C68.6292 76.1722 68.6015 76.2104 68.6015 76.2575V76.526C68.6015 76.5731 68.6292 76.6113 68.6635 76.6113Z" fill="#3F3D56"/>
<path d="M67.599 76.6113H68.0073C68.0416 76.6113 68.0693 76.5731 68.0693 76.526V76.2575C68.0693 76.2104 68.0416 76.1722 68.0073 76.1722H67.599C67.5648 76.1722 67.537 76.2104 67.537 76.2575V76.526C67.537 76.5731 67.5648 76.6113 67.599 76.6113Z" fill="#3F3D56"/>
<path d="M66.5346 76.6113H66.9428C66.9771 76.6113 67.0049 76.5731 67.0049 76.526V76.2575C67.0049 76.2104 66.9771 76.1722 66.9428 76.1722H66.5346C66.5003 76.1722 66.4726 76.2104 66.4726 76.2575V76.526C66.4726 76.5731 66.5003 76.6113 66.5346 76.6113Z" fill="#3F3D56"/>
<path d="M65.4701 76.6113H65.8784C65.9126 76.6113 65.9404 76.5731 65.9404 76.526V76.2575C65.9404 76.2104 65.9126 76.1722 65.8784 76.1722H65.4701C65.4359 76.1722 65.4081 76.2104 65.4081 76.2575V76.526C65.4081 76.5731 65.4359 76.6113 65.4701 76.6113Z" fill="#3F3D56"/>
<path d="M64.4047 76.6113H64.813C64.8472 76.6113 64.875 76.5731 64.875 76.526V76.2575C64.875 76.2104 64.8472 76.1722 64.813 76.1722H64.4047C64.3704 76.1722 64.3427 76.2104 64.3427 76.2575V76.526C64.3427 76.5731 64.3704 76.6113 64.4047 76.6113Z" fill="#3F3D56"/>
<path d="M63.3403 76.6113H63.7485C63.7828 76.6113 63.8105 76.5731 63.8105 76.526V76.2575C63.8105 76.2104 63.7828 76.1722 63.7485 76.1722H63.3403C63.306 76.1722 63.2782 76.2104 63.2782 76.2575V76.526C63.2782 76.5731 63.306 76.6113 63.3403 76.6113Z" fill="#3F3D56"/>
<path d="M70.4733 77.4902H74.6079C74.6421 77.4902 74.6699 77.452 74.6699 77.4049V77.1364C74.6699 77.0893 74.6421 77.0511 74.6079 77.0511H70.4733C70.4391 77.0511 70.4113 77.0893 70.4113 77.1364V77.4049C70.4113 77.452 70.4391 77.4902 70.4733 77.4902Z" fill="#3F3D56"/>
<path d="M66.093 62.6875H65.7316C65.622 62.6875 65.5332 62.8096 65.5332 62.9603C65.5332 63.111 65.622 63.2331 65.7316 63.2331H66.093C66.2026 63.2331 66.2914 63.111 66.2914 62.9603C66.2914 62.8096 66.2026 62.6875 66.093 62.6875Z" fill="white"/>
<path d="M70.2268 62.6875H69.8654C69.7558 62.6875 69.667 62.8096 69.667 62.9603C69.667 63.111 69.7558 63.2331 69.8654 63.2331H70.2268C70.3364 63.2331 70.4252 63.111 70.4252 62.9603C70.4252 62.8096 70.3364 62.6875 70.2268 62.6875Z" fill="white"/>
<path d="M71.3977 62.6875H71.0363C70.9267 62.6875 70.8379 62.8096 70.8379 62.9603C70.8379 63.111 70.9267 63.2331 71.0363 63.2331H71.3977C71.5073 63.2331 71.5961 63.111 71.5961 62.9603C71.5961 62.8096 71.5073 62.6875 71.3977 62.6875Z" fill="white"/>
<path d="M69.1029 62.6426H66.8566C66.747 62.6426 66.6582 62.7647 66.6582 62.9154C66.6582 63.066 66.747 63.1882 66.8566 63.1882H69.1029C69.2124 63.1882 69.3013 63.066 69.3013 62.9154C69.3013 62.7647 69.2124 62.6426 69.1029 62.6426Z" fill="white"/>
<path d="M74.6136 62.6426H72.3674C72.2578 62.6426 72.1689 62.7647 72.1689 62.9154C72.1689 63.066 72.2578 63.1882 72.3674 63.1882H74.6136C74.7232 63.1882 74.812 63.066 74.812 62.9154C74.812 62.7647 74.7232 62.6426 74.6136 62.6426Z" fill="white"/>
<path d="M67.1956 63.9199H66.8341C66.7246 63.9199 66.6357 64.0421 66.6357 64.1927C66.6357 64.3434 66.7246 64.4655 66.8341 64.4655H67.1956C67.3051 64.4655 67.394 64.3434 67.394 64.1927C67.394 64.0421 67.3051 63.9199 67.1956 63.9199Z" fill="white"/>
<path d="M71.3294 63.9199H70.9679C70.8584 63.9199 70.7695 64.0421 70.7695 64.1927C70.7695 64.3434 70.8584 64.4655 70.9679 64.4655H71.3294C71.4389 64.4655 71.5278 64.3434 71.5278 64.1927C71.5278 64.0421 71.4389 63.9199 71.3294 63.9199Z" fill="white"/>
<path d="M72.5002 63.9199H72.1388C72.0293 63.9199 71.9404 64.0421 71.9404 64.1927C71.9404 64.3434 72.0293 64.4655 72.1388 64.4655H72.5002C72.6098 64.4655 72.6986 64.3434 72.6986 64.1927C72.6986 64.0421 72.6098 63.9199 72.5002 63.9199Z" fill="white"/>
<path d="M70.2044 63.875H67.9582C67.8486 63.875 67.7598 63.9971 67.7598 64.1478C67.7598 64.2985 67.8486 64.4206 67.9582 64.4206H70.2044C70.314 64.4206 70.4028 64.2985 70.4028 64.1478C70.4028 63.9971 70.314 63.875 70.2044 63.875Z" fill="white"/>
<path d="M75.7161 63.875H73.4699C73.3603 63.875 73.2715 63.9971 73.2715 64.1478C73.2715 64.2985 73.3603 64.4206 73.4699 64.4206H75.7161C75.8257 64.4206 75.9145 64.2985 75.9145 64.1478C75.9145 63.9971 75.8257 63.875 75.7161 63.875Z" fill="white"/>
<path d="M68.2981 65.1504H67.9367C67.8271 65.1504 67.7383 65.2725 67.7383 65.4232C67.7383 65.5738 67.8271 65.696 67.9367 65.696H68.2981C68.4077 65.696 68.4965 65.5738 68.4965 65.4232C68.4965 65.2725 68.4077 65.1504 68.2981 65.1504Z" fill="white"/>
<path d="M72.4319 65.1504H72.0705C71.9609 65.1504 71.8721 65.2725 71.8721 65.4232C71.8721 65.5738 71.9609 65.696 72.0705 65.696H72.4319C72.5415 65.696 72.6303 65.5738 72.6303 65.4232C72.6303 65.2725 72.5415 65.1504 72.4319 65.1504Z" fill="white"/>
<path d="M73.6028 65.1504H73.2414C73.1318 65.1504 73.043 65.2725 73.043 65.4232C73.043 65.5738 73.1318 65.696 73.2414 65.696H73.6028C73.7124 65.696 73.8012 65.5738 73.8012 65.4232C73.8012 65.2725 73.7124 65.1504 73.6028 65.1504Z" fill="white"/>
<path d="M71.307 65.1055H69.0607C68.9511 65.1055 68.8623 65.2276 68.8623 65.3783C68.8623 65.5289 68.9511 65.6511 69.0607 65.6511H71.307C71.4165 65.6511 71.5054 65.5289 71.5054 65.3783C71.5054 65.2276 71.4165 65.1055 71.307 65.1055Z" fill="white"/>
<path d="M76.8187 65.1055H74.5724C74.4629 65.1055 74.374 65.2276 74.374 65.3783C74.374 65.5289 74.4629 65.6511 74.5724 65.6511H76.8187C76.9283 65.6511 77.0171 65.5289 77.0171 65.3783C77.0171 65.2276 76.9283 65.1055 76.8187 65.1055Z" fill="white"/>
<path d="M69.3997 66.3828H69.0382C68.9287 66.3828 68.8398 66.5049 68.8398 66.6556C68.8398 66.8063 68.9287 66.9284 69.0382 66.9284H69.3997C69.5092 66.9284 69.5981 66.8063 69.5981 66.6556C69.5981 66.5049 69.5092 66.3828 69.3997 66.3828Z" fill="white"/>
<path d="M73.5335 66.3828H73.172C73.0625 66.3828 72.9736 66.5049 72.9736 66.6556C72.9736 66.8063 73.0625 66.9284 73.172 66.9284H73.5335C73.643 66.9284 73.7319 66.8063 73.7319 66.6556C73.7319 66.5049 73.643 66.3828 73.5335 66.3828Z" fill="white"/>
<path d="M74.7044 66.3828H74.3429C74.2334 66.3828 74.1445 66.5049 74.1445 66.6556C74.1445 66.8063 74.2334 66.9284 74.3429 66.9284H74.7044C74.8139 66.9284 74.9028 66.8063 74.9028 66.6556C74.9028 66.5049 74.8139 66.3828 74.7044 66.3828Z" fill="white"/>
<path d="M72.4095 66.3359H70.1632C70.0537 66.3359 69.9648 66.4581 69.9648 66.6087C69.9648 66.7594 70.0537 66.8815 70.1632 66.8815H72.4095C72.5191 66.8815 72.6079 66.7594 72.6079 66.6087C72.6079 66.4581 72.5191 66.3359 72.4095 66.3359Z" fill="white"/>
<path d="M70.2268 71.2793H69.8654C69.7558 71.2793 69.667 71.4014 69.667 71.5521C69.667 71.7027 69.7558 71.8249 69.8654 71.8249H70.2268C70.3364 71.8249 70.4252 71.7027 70.4252 71.5521C70.4252 71.4014 70.3364 71.2793 70.2268 71.2793Z" fill="white"/>
<path d="M71.3977 71.2793H71.0363C70.9267 71.2793 70.8379 71.4014 70.8379 71.5521C70.8379 71.7027 70.9267 71.8249 71.0363 71.8249H71.3977C71.5073 71.8249 71.5961 71.7027 71.5961 71.5521C71.5961 71.4014 71.5073 71.2793 71.3977 71.2793Z" fill="white"/>
<path d="M74.6136 71.3242H72.3674C72.2578 71.3242 72.1689 71.4464 72.1689 71.597C72.1689 71.7477 72.2578 71.8698 72.3674 71.8698H74.6136C74.7232 71.8698 74.812 71.7477 74.812 71.597C74.812 71.4464 74.7232 71.3242 74.6136 71.3242Z" fill="white"/>
<path d="M66.093 71.2793H65.7316C65.622 71.2793 65.5332 71.4014 65.5332 71.5521C65.5332 71.7027 65.622 71.8249 65.7316 71.8249H66.093C66.2026 71.8249 66.2914 71.7027 66.2914 71.5521C66.2914 71.4014 66.2026 71.2793 66.093 71.2793Z" fill="white"/>
<path d="M69.1029 71.3242H66.8566C66.747 71.3242 66.6582 71.4464 66.6582 71.597C66.6582 71.7477 66.747 71.8698 66.8566 71.8698H69.1029C69.2124 71.8698 69.3013 71.7477 69.3013 71.597C69.3013 71.4464 69.2124 71.3242 69.1029 71.3242Z" fill="white"/>
<path d="M67.1956 70.0469H66.8341C66.7246 70.0469 66.6357 70.169 66.6357 70.3197C66.6357 70.4703 66.7246 70.5925 66.8341 70.5925H67.1956C67.3051 70.5925 67.394 70.4703 67.394 70.3197C67.394 70.169 67.3051 70.0469 67.1956 70.0469Z" fill="white"/>
<path d="M71.3294 70.0469H70.9679C70.8584 70.0469 70.7695 70.169 70.7695 70.3197C70.7695 70.4703 70.8584 70.5925 70.9679 70.5925H71.3294C71.4389 70.5925 71.5278 70.4703 71.5278 70.3197C71.5278 70.169 71.4389 70.0469 71.3294 70.0469Z" fill="white"/>
<path d="M72.5002 70.0469H72.1388C72.0293 70.0469 71.9404 70.169 71.9404 70.3197C71.9404 70.4703 72.0293 70.5925 72.1388 70.5925H72.5002C72.6098 70.5925 72.6986 70.4703 72.6986 70.3197C72.6986 70.169 72.6098 70.0469 72.5002 70.0469Z" fill="white"/>
<path d="M70.2044 70.0918H67.9582C67.8486 70.0918 67.7598 70.2139 67.7598 70.3646C67.7598 70.5152 67.8486 70.6374 67.9582 70.6374H70.2044C70.314 70.6374 70.4028 70.5152 70.4028 70.3646C70.4028 70.2139 70.314 70.0918 70.2044 70.0918Z" fill="white"/>
<path d="M68.2981 68.8164H67.9367C67.8271 68.8164 67.7383 68.9385 67.7383 69.0892C67.7383 69.2399 67.8271 69.362 67.9367 69.362H68.2981C68.4077 69.362 68.4965 69.2399 68.4965 69.0892C68.4965 68.9385 68.4077 68.8164 68.2981 68.8164Z" fill="white"/>
<path d="M72.4319 68.8164H72.0705C71.9609 68.8164 71.8721 68.9385 71.8721 69.0892C71.8721 69.2399 71.9609 69.362 72.0705 69.362H72.4319C72.5415 69.362 72.6303 69.2399 72.6303 69.0892C72.6303 68.9385 72.5415 68.8164 72.4319 68.8164Z" fill="white"/>
<path d="M73.6028 68.8164H73.2414C73.1318 68.8164 73.043 68.9385 73.043 69.0892C73.043 69.2399 73.1318 69.362 73.2414 69.362H73.6028C73.7124 69.362 73.8012 69.2399 73.8012 69.0892C73.8012 68.9385 73.7124 68.8164 73.6028 68.8164Z" fill="white"/>
<path d="M71.307 68.8613H69.0607C68.9511 68.8613 68.8623 68.9835 68.8623 69.1341C68.8623 69.2848 68.9511 69.4069 69.0607 69.4069H71.307C71.4165 69.4069 71.5054 69.2848 71.5054 69.1341C71.5054 68.9835 71.4165 68.8613 71.307 68.8613Z" fill="white"/>
<path d="M69.3997 67.584H69.0382C68.9287 67.584 68.8398 67.7061 68.8398 67.8568C68.8398 68.0074 68.9287 68.1296 69.0382 68.1296H69.3997C69.5092 68.1296 69.5981 68.0074 69.5981 67.8568C69.5981 67.7061 69.5092 67.584 69.3997 67.584Z" fill="white"/>
<path d="M73.5335 67.584H73.172C73.0625 67.584 72.9736 67.7061 72.9736 67.8568C72.9736 68.0074 73.0625 68.1296 73.172 68.1296H73.5335C73.643 68.1296 73.7319 68.0074 73.7319 67.8568C73.7319 67.7061 73.643 67.584 73.5335 67.584Z" fill="white"/>
<path d="M74.7044 67.584H74.3429C74.2334 67.584 74.1445 67.7061 74.1445 67.8568C74.1445 68.0074 74.2334 68.1296 74.3429 68.1296H74.7044C74.8139 68.1296 74.9028 68.0074 74.9028 67.8568C74.9028 67.7061 74.8139 67.584 74.7044 67.584Z" fill="white"/>
<path d="M72.4095 67.6309H70.1632C70.0537 67.6309 69.9648 67.753 69.9648 67.9037C69.9648 68.0543 70.0537 68.1764 70.1632 68.1764H72.4095C72.5191 68.1764 72.6079 68.0543 72.6079 67.9037C72.6079 67.753 72.5191 67.6309 72.4095 67.6309Z" fill="white"/>
<path d="M64.1722 85.7101L62.4756 82.0226L67.8011 76.1856L69.9992 72.8372C70.2848 72.4022 70.6484 72.0779 71.0537 71.8966C71.459 71.7154 71.8918 71.6835 72.3089 71.8043C72.7259 71.9251 73.1126 72.1942 73.4304 72.5849C73.7481 72.9755 73.9856 73.474 74.1193 74.0304C74.3175 74.855 74.2749 75.7531 74.0005 76.5353C73.7261 77.3175 73.2415 77.9225 72.6488 78.2227L69.173 79.9834L64.1722 85.7101Z" fill="#FFB6B6"/>
<path d="M24.3623 58.9738V76.8958H33.494V58.9738C33.4942 58.8449 33.4642 58.7193 33.4087 58.6155C33.3531 58.5117 33.2747 58.4352 33.1852 58.3971C33.1429 58.378 33.0987 58.3685 33.0543 58.3692H24.8033C24.7455 58.369 24.6882 58.3845 24.6347 58.4148C24.5812 58.4452 24.5326 58.4897 24.4917 58.5458C24.4507 58.602 24.4182 58.6687 24.396 58.7421C24.3738 58.8155 24.3624 58.8943 24.3623 58.9738ZM27.926 65.1319C27.9284 64.7786 28.0322 64.4408 28.2147 64.1921C28.3973 63.9435 28.6438 63.8039 28.9008 63.8039C29.1578 63.8039 29.4044 63.9435 29.5869 64.1921C29.7695 64.4408 29.8733 64.7786 29.8756 65.1319V67.2114C29.8743 67.5656 29.771 67.9048 29.5884 68.1547C29.4057 68.4046 29.1585 68.5448 28.9008 68.5448C28.6431 68.5448 28.396 68.4046 28.2133 68.1547C28.0306 67.9048 27.9273 67.5656 27.926 67.2114V65.1319Z" fill="#2F2E41"/>
<path d="M24.335 76.3223V78.0505C24.3352 78.14 24.361 78.2258 24.407 78.2893C24.4529 78.3528 24.5151 78.3888 24.5803 78.3895H33.2773C33.3425 78.3891 33.4049 78.3531 33.4508 78.2896C33.4968 78.2261 33.5226 78.1401 33.5226 78.0505V76.3223H24.335Z" fill="#3F3D56"/>
<path d="M9.99707 31.9714V64.6944C9.99731 65.1115 10.1179 65.5113 10.3324 65.8062C10.5468 66.101 10.8376 66.2668 11.1409 66.2672H46.4095C46.7128 66.2668 47.0036 66.101 47.218 65.8062C47.4325 65.5113 47.5531 65.1115 47.5533 64.6944V31.9714C47.5526 31.5547 47.4318 31.1554 47.2174 30.861C47.003 30.5665 46.7125 30.4009 46.4095 30.4004H11.1409C10.8379 30.4009 10.5474 30.5665 10.333 30.861C10.1186 31.1554 9.99779 31.5547 9.99707 31.9714Z" fill="#3F3D56"/>
<path d="M10.8242 32.3794V64.2917C10.8245 64.5145 10.889 64.728 11.0036 64.8856C11.1182 65.0431 11.2735 65.1318 11.4355 65.1322H46.1156C46.2777 65.1318 46.433 65.0431 46.5476 64.8856C46.6622 64.728 46.7267 64.5145 46.727 64.2917V32.3794C46.727 32.1563 46.6626 31.9424 46.548 31.7845C46.4334 31.6265 46.2779 31.5376 46.1156 31.5371H11.4355C11.2733 31.5376 11.1178 31.6265 11.0032 31.7845C10.8886 31.9424 10.8242 32.1563 10.8242 32.3794Z" fill="white"/>
<path d="M17.2611 78.273C17.2964 78.3339 17.3413 78.3829 17.3924 78.4165C17.4434 78.4501 17.4994 78.4674 17.556 78.467H38.1884C38.2448 78.4669 38.3006 78.4495 38.3515 78.4161C38.4024 78.3827 38.4473 78.3341 38.4828 78.2738C38.5184 78.2136 38.5437 78.1432 38.557 78.0678C38.5702 77.9924 38.5711 77.9138 38.5595 77.8379L38.2393 75.7462C38.226 75.6609 38.1974 75.5815 38.1561 75.5153C38.1148 75.449 38.0621 75.3981 38.0029 75.367C37.9599 75.3438 37.9142 75.332 37.8681 75.332H17.875C17.8289 75.332 17.7832 75.3438 17.7403 75.367C17.681 75.3981 17.6283 75.449 17.587 75.5153C17.5457 75.5815 17.5172 75.6609 17.5039 75.7462L17.1836 77.8379C17.1722 77.9138 17.1733 77.9922 17.1867 78.0675C17.2001 78.1427 17.2255 78.213 17.2611 78.273Z" fill="#2F2E41"/>
<path d="M44.9903 35.933H12.5403C12.5065 35.932 12.4744 35.9128 12.4509 35.8796C12.4273 35.8465 12.4141 35.8019 12.4141 35.7556C12.4141 35.7092 12.4273 35.6646 12.4509 35.6315C12.4744 35.5983 12.5065 35.5792 12.5403 35.5781H44.9903C45.024 35.5792 45.0561 35.5983 45.0797 35.6315C45.1033 35.6646 45.1165 35.7092 45.1165 35.7556C45.1165 35.8019 45.1033 35.8465 45.0797 35.8796C45.0561 35.9128 45.024 35.932 44.9903 35.933Z" fill="#3F3D56"/>
<path d="M14.7494 34.6729C15.1671 34.6729 15.5057 34.1969 15.5057 33.6099C15.5057 33.0228 15.1671 32.5469 14.7494 32.5469C14.3318 32.5469 13.9932 33.0228 13.9932 33.6099C13.9932 34.1969 14.3318 34.6729 14.7494 34.6729Z" fill="#3F3D56"/>
<path d="M17.3617 34.6729C17.7794 34.6729 18.118 34.1969 18.118 33.6099C18.118 33.0228 17.7794 32.5469 17.3617 32.5469C16.9441 32.5469 16.6055 33.0228 16.6055 33.6099C16.6055 34.1969 16.9441 34.6729 17.3617 34.6729Z" fill="#3F3D56"/>
<path d="M19.974 34.6729C20.3917 34.6729 20.7303 34.1969 20.7303 33.6099C20.7303 33.0228 20.3917 32.5469 19.974 32.5469C19.5564 32.5469 19.2178 33.0228 19.2178 33.6099C19.2178 34.1969 19.5564 34.6729 19.974 34.6729Z" fill="#3F3D56"/>
<path d="M43.4176 32.8086H41.562C41.5253 32.8098 41.4904 32.8306 41.4648 32.8667C41.4392 32.9028 41.4248 32.9512 41.4248 33.0017C41.4248 33.0521 41.4392 33.1006 41.4648 33.1367C41.4904 33.1727 41.5253 33.1936 41.562 33.1948H43.4176C43.4545 33.1941 43.4897 33.1734 43.5156 33.1373C43.5415 33.1011 43.5561 33.0524 43.5561 33.0017C43.5561 32.9509 43.5415 32.9022 43.5156 32.8661C43.4897 32.83 43.4545 32.8093 43.4176 32.8086Z" fill="#3F3D56"/>
<path d="M43.4177 33.5352H41.5622C41.5255 33.5363 41.4905 33.5571 41.4649 33.5932C41.4392 33.6293 41.4248 33.6778 41.4248 33.7283C41.4248 33.7787 41.4392 33.8272 41.4649 33.8633C41.4905 33.8994 41.5255 33.9202 41.5622 33.9213H43.4177C43.4547 33.9207 43.49 33.9001 43.516 33.864C43.5419 33.8278 43.5565 33.7791 43.5565 33.7283C43.5565 33.6774 43.5419 33.6287 43.516 33.5925C43.49 33.5564 43.4547 33.5358 43.4177 33.5352Z" fill="#3F3D56"/>
<path d="M43.4176 34.2598H41.562C41.5253 34.2609 41.4904 34.2818 41.4648 34.3179C41.4392 34.354 41.4248 34.4024 41.4248 34.4529C41.4248 34.5033 41.4392 34.5518 41.4648 34.5878C41.4904 34.6239 41.5253 34.6448 41.562 34.646H43.4176C43.4545 34.6452 43.4897 34.6246 43.5156 34.5884C43.5415 34.5523 43.5561 34.5036 43.5561 34.4529C43.5561 34.4021 43.5415 34.3534 43.5156 34.3173C43.4897 34.2811 43.4545 34.2605 43.4176 34.2598Z" fill="#3F3D56"/>
<path d="M88.1523 77.0804C88.2082 77.3046 88.3145 77.4986 88.4557 77.6345C88.5968 77.7705 88.7657 77.8415 88.9381 77.8372L92.305 77.7181C92.4786 77.7134 92.6465 77.6317 92.7835 77.485C92.9205 77.3383 93.0193 77.1346 93.0652 76.9043L93.5416 69.8992C93.7107 70.0045 93.8947 70.0565 94.0802 70.0514C94.2414 70.0458 94.4003 69.9966 94.5476 69.9067C94.695 69.8167 94.8281 69.6877 94.9392 69.5271C95.0503 69.3664 95.1373 69.1772 95.1953 68.9703C95.2532 68.7634 95.281 68.5429 95.2769 68.3212C95.2729 68.0996 95.2371 67.8812 95.1717 67.6786C95.1063 67.4759 95.0125 67.293 94.8956 67.1402C94.7788 66.9874 94.6412 66.8678 94.4907 66.7881C94.3402 66.7084 94.1798 66.6703 94.0186 66.6758C93.9445 66.6755 93.8705 66.6861 93.798 66.7074C93.7191 66.5901 93.6232 66.4968 93.5165 66.4335C93.4098 66.3702 93.2947 66.3383 93.1785 66.3399L87.9994 66.5238C87.9564 66.526 87.9137 66.5333 87.8716 66.5456C87.758 66.5747 87.6503 66.6369 87.5557 66.7281C87.4611 66.8192 87.3817 66.9372 87.3231 67.074C87.2644 67.2109 87.2277 67.3634 87.2155 67.5214C87.2033 67.6793 87.2158 67.8391 87.2522 67.9898L88.1523 77.0804ZM93.6393 69.4235L93.9784 67.7542C94.0169 67.5614 94.0178 67.358 93.981 67.1645C93.9974 67.1645 94.0119 67.1538 94.0284 67.1537C94.2608 67.1471 94.4857 67.2675 94.6537 67.4885C94.8217 67.7096 94.9191 68.0132 94.9246 68.3328C94.93 68.6524 94.8431 68.9619 94.6828 69.1935C94.5225 69.4251 94.3019 69.5598 94.0695 69.5682C93.9192 69.5747 93.7705 69.5247 93.6393 69.4235Z" fill="#2F2E41"/>
<path d="M87.8711 66.5458C87.9814 67.4133 89.222 68.0231 90.7137 67.9171C92.0853 67.8302 93.2069 67.1679 93.4124 66.3831C93.3363 66.3521 93.2573 66.3377 93.178 66.3401L87.9988 66.524C87.9559 66.5262 87.9131 66.5335 87.8711 66.5458Z" fill="#3F3D56"/>
<path d="M90.9871 73.2315C90.9939 73.2291 91.0003 73.2252 91.0062 73.2199L91.7374 72.5618C91.7463 72.5539 91.7535 72.5431 91.7585 72.5303C91.7636 72.5176 91.7662 72.5033 91.7662 72.4888C91.7662 72.4743 91.7636 72.46 91.7586 72.4473C91.7536 72.4345 91.7463 72.4237 91.7375 72.4157L90.9775 71.7313C90.9705 71.725 90.9627 71.7206 90.9545 71.7184C90.9463 71.7162 90.9378 71.7163 90.9296 71.7186C90.9214 71.7209 90.9136 71.7254 90.9067 71.7319C90.8998 71.7384 90.8939 71.7466 90.8893 71.7562C90.8847 71.7659 90.8816 71.7766 90.88 71.7879C90.8785 71.7992 90.8785 71.8108 90.8803 71.8221C90.882 71.8334 90.8853 71.844 90.89 71.8535C90.8948 71.863 90.9008 71.8711 90.9078 71.8774L91.5866 72.4887L90.9367 73.0737C90.9241 73.085 90.9148 73.1021 90.9105 73.1219C90.9063 73.1417 90.9072 73.163 90.9133 73.1819C90.9193 73.2009 90.93 73.2162 90.9435 73.2253C90.9571 73.2344 90.9725 73.2366 90.9871 73.2315Z" fill="#00BFA6" fill-opacity="0.75"/>
<path d="M89.8324 73.3055C89.8447 73.3012 89.8558 73.292 89.8642 73.279C89.8726 73.2661 89.8781 73.2499 89.8798 73.2327C89.8815 73.2154 89.8794 73.1979 89.8739 73.1823C89.8683 73.1666 89.8594 73.1537 89.8484 73.145L89.1745 72.6137L89.8259 71.9484C89.8326 71.9416 89.8382 71.933 89.8425 71.9231C89.8468 71.9133 89.8496 71.9024 89.8508 71.8911C89.8521 71.8797 89.8516 71.8682 89.8496 71.857C89.8476 71.8459 89.844 71.8355 89.839 71.8262C89.834 71.817 89.8278 71.8093 89.8206 71.8034C89.8135 71.7975 89.8055 71.7936 89.7973 71.7919C89.789 71.7903 89.7806 71.7909 89.7725 71.7937C89.7644 71.7965 89.7568 71.8014 89.7501 71.8082L89.0208 72.5531C89.0123 72.5618 89.0056 72.5732 89.0011 72.5863C88.9966 72.5994 88.9946 72.6139 88.9952 72.6284C88.9958 72.6429 88.9991 72.6569 89.0046 72.6692C89.0102 72.6816 89.0179 72.6918 89.0271 72.699L89.7852 73.2966C89.7995 73.3079 89.8164 73.3111 89.8324 73.3055Z" fill="#00BFA6" fill-opacity="0.75"/>
<path d="M90.9145 73.808C90.9206 73.8059 90.9265 73.8025 90.9319 73.7979C90.939 73.792 90.9452 73.7841 90.9502 73.7749C90.9551 73.7656 90.9586 73.7551 90.9606 73.7439C90.9626 73.7328 90.963 73.7212 90.9617 73.7099C90.9604 73.6985 90.9575 73.6876 90.9532 73.6778L89.9166 71.3348C89.9079 71.315 89.8937 71.3009 89.8774 71.2954C89.861 71.29 89.8437 71.2937 89.8293 71.3057C89.8149 71.3178 89.8046 71.3372 89.8006 71.3597C89.7966 71.3822 89.7993 71.4059 89.8081 71.4257L90.8446 73.7688C90.8516 73.7847 90.8622 73.7972 90.8748 73.8042C90.8874 73.8113 90.9013 73.8126 90.9145 73.808Z" fill="#00BFA6" fill-opacity="0.75"/>
<path d="M32.6426 45.5781H27.0262C26.7971 45.5781 26.6113 45.8335 26.6113 46.1485V46.903C26.6113 47.218 26.7971 47.4734 27.0262 47.4734H32.6426C32.8717 47.4734 33.0574 47.218 33.0574 46.903V46.1485C33.0574 45.8335 32.8717 45.5781 32.6426 45.5781Z" fill="#00BFA6" fill-opacity="0.75"/>
<path d="M35.9166 49.3691H23.7527C23.5236 49.3691 23.3379 49.6245 23.3379 49.9395V50.694C23.3379 51.009 23.5236 51.2644 23.7527 51.2644H35.9166C36.1458 51.2644 36.3315 51.009 36.3315 50.694V49.9395C36.3315 49.6245 36.1458 49.3691 35.9166 49.3691Z" fill="#E6E6E6"/>
<path d="M35.9166 53.1602H23.7527C23.5236 53.1602 23.3379 53.4155 23.3379 53.7306V54.485C23.3379 54.8 23.5236 55.0554 23.7527 55.0554H35.9166C36.1458 55.0554 36.3315 54.8 36.3315 54.485V53.7306C36.3315 53.4155 36.1458 53.1602 35.9166 53.1602Z" fill="#E6E6E6"/>
<path d="M36.9473 65.8527L36.9748 65.9723L36.9763 65.9763L37.8056 69.4429L38.7596 73.4378L40.5545 80.9451L40.5719 82.1113V82.1153L40.7053 91.4965L40.3356 92.7683L40.7517 94.8534C40.7517 94.8534 40.5603 91.7015 39.5338 93.5116C38.9524 94.5402 38.2724 95.5928 37.7142 96.5795C38.5276 97.032 39.354 97.4414 40.1935 97.8075C40.3747 97.8872 40.5574 97.963 40.7401 98.0387C40.7792 98.0547 40.8184 98.0706 40.8575 98.0866C43.6402 99.218 46.517 99.8538 49.4174 99.9784C49.5682 99.9843 49.7161 99.9883 49.8596 99.9923C49.9103 99.9943 49.9596 99.9963 50.0089 99.9963C50.1713 99.9983 50.3322 100 50.4946 100C50.8223 100 51.1485 99.9936 51.4733 99.9804C53.877 99.8872 56.2668 99.4428 58.6021 98.6547C58.5862 97.3291 58.5427 95.7801 58.4804 94.1256C58.4514 93.3142 57.8004 92.4351 57.7612 91.5859C57.7337 90.948 58.318 90.348 58.2875 89.7001C58.0904 85.7112 57.8439 87.2424 57.6612 84.4177C57.6424 84.1406 57.6249 83.8755 57.609 83.6223C57.4916 81.8083 57.4104 80.674 57.4104 80.674L58.1904 73.9142L59.4155 63.3011L59.3213 63.0878L59.2154 63.016L52.7535 58.6184L52.4026 57.3825C52.3004 57.0264 52.123 56.7205 51.8933 56.5042C51.6636 56.2878 51.3921 56.1709 51.1137 56.1685L46.857 56.1446C46.636 56.1432 46.4181 56.2143 46.2212 56.3519C46.0242 56.4895 45.854 56.6898 45.7246 56.936L44.572 59.1307L36.9473 65.8527Z" fill="#3F3D56"/>
<path d="M41.5364 79.2756L40.5722 82.1123L39.914 84.05L38.7817 92.2012L38.2148 93.0285L37.7291 90.0998L32.6456 91.6518C32.4789 90.378 32.601 91.6949 32.498 90.2975C32.527 90.2576 32.5575 90.2177 32.5879 90.1778C32.6691 90.0742 32.7373 89.9765 32.7358 89.8828C32.6778 85.0626 32.8518 76.8596 34.3046 71.8899C34.5321 71.0785 34.8321 70.3091 35.1977 69.5994C35.2267 69.5456 35.2542 69.4918 35.2818 69.438C35.9516 68.1482 36.3749 66.8784 36.9752 65.9753V65.9733C36.9789 65.9692 36.9823 65.9645 36.9853 65.9594C36.9875 65.9579 36.9895 65.9559 36.9911 65.9534L41.1145 62.9473L41.2914 69.7808L41.4175 74.6927L41.5364 79.2756Z" fill="#3F3D56"/>
<path d="M56.4043 80.08L57.6086 83.623L58.029 84.8569L59.161 93.0074L59.726 93.8326L60.2128 90.9047L60.4416 90.8402L64.5669 89.6655L65.7692 94.916C66.0402 94.2951 66.147 93.5647 66.0715 92.8481C65.996 92.1315 65.7428 91.4727 65.3548 90.9832C65.2726 90.8811 65.2042 90.7816 65.2062 90.6875C65.2746 85.0182 65.0224 74.6661 62.7447 70.4054C62.0213 69.0532 61.5873 67.7065 60.9558 66.7656C60.9538 66.7629 60.9538 66.7602 60.9519 66.7602L59.4152 63.3006L59.3213 63.0882L59.2157 63.0156L56.4043 80.08Z" fill="#3F3D56"/>
<path d="M49.1084 54.4791C52.236 54.4791 54.7715 50.993 54.7715 46.6927C54.7715 42.3923 52.236 38.9062 49.1084 38.9062C45.9808 38.9062 43.4453 42.3923 43.4453 46.6927C43.4453 50.993 45.9808 54.4791 49.1084 54.4791Z" fill="#FFB6B6"/>
<path d="M56.7633 41.2532C56.7194 41.1887 56.6665 41.1371 56.6078 41.1013C56.549 41.0656 56.4857 41.0465 56.4214 41.0452L56.5066 40.7202C56.5344 40.6178 56.5419 40.5071 56.5283 40.3995C56.5148 40.2918 56.4806 40.191 56.4294 40.1074C56.3782 40.0239 56.3118 39.9605 56.2369 39.9239C56.162 39.8872 56.0814 39.8786 56.0033 39.8989L55.6932 39.981L55.7224 39.6962C55.7336 39.5901 55.7246 39.4818 55.6961 39.382C55.6677 39.2822 55.6208 39.1943 55.5601 39.127C55.4995 39.0596 55.4271 39.0151 55.3502 38.9979C55.2732 38.9807 55.1943 38.9913 55.1213 39.0287C55.0548 39.0646 54.9833 39.0797 54.9121 39.0727C54.8408 39.0658 54.7716 39.037 54.7095 38.9885C54.6471 38.9414 54.593 38.8763 54.5508 38.7975C54.5087 38.7187 54.4796 38.6282 54.4655 38.5324L54.3574 37.8159L54.346 37.7775C53.8198 36.5717 52.8082 35.6945 51.5703 35.373C50.4684 35.0846 49.3385 35.2314 48.2493 35.3695C47.8172 35.4254 47.3291 35.4883 46.9224 35.8308C46.5768 36.1244 46.2844 36.7115 46.3442 37.3039C45.2702 36.8513 44.1188 37.7548 43.5481 38.8941C42.872 40.2501 42.7614 41.9487 42.7436 43.2768C42.6953 46.4187 43.1668 48.9892 44.1416 50.9184C44.2128 51.0582 44.2306 51.3501 44.3717 51.4479L44.3424 51.3833C44.5 51.4916 44.6602 51.6663 44.6004 51.8533C44.4289 52.3915 45.5689 53.5816 46.3721 53.9748C47.8375 54.693 49.7859 54.6318 51.1559 54.3732L51.2042 53.9276C51.6986 53.835 52.0469 53.6585 52.1447 53.3824C52.3176 53.1797 52.465 52.9979 52.5934 52.8302L52.5946 52.8284C52.5972 52.8249 52.6023 52.8197 52.6048 52.8162C53.2238 52.0001 53.3674 51.5353 53.4322 50.8276C53.4945 50.1338 53.3839 49.4296 53.2708 48.7953C55.6525 49.302 52.3328 45.3073 54.5519 44.5349C54.5773 44.5242 54.6032 44.5154 54.6294 44.5087C54.6942 44.4878 54.7591 44.4668 54.8213 44.4423C55.1215 44.3303 55.409 44.1615 55.6754 43.9408C56.2956 43.4218 56.5002 42.7333 56.8205 41.9574C56.8667 41.8469 56.8861 41.7191 56.8758 41.5924C56.8655 41.4658 56.8261 41.3469 56.7633 41.2532Z" fill="#2F2E41"/>
<path d="M69.1383 80.6343C69.137 80.9401 69.1345 81.3682 69.1243 81.8977C69.123 81.9711 69.1217 82.0462 69.1205 82.1231C69.1039 83.0965 69.0874 83.9125 69.0607 84.8195C69.0595 84.8824 69.0582 84.9435 69.0556 85.0064C69.0201 86.2716 68.9641 87.7447 68.8676 90.0776C68.6884 94.3869 68.3757 90.67 68.0618 92.1816C68.0465 92.2567 68.03 92.3458 68.0148 92.4507C67.9672 92.8311 67.887 93.2024 67.7758 93.5568C67.6093 93.6931 67.4377 93.8242 67.2687 93.9552C66.787 94.3239 66.2977 94.6787 65.8046 95.0159C65.5275 95.2047 65.2492 95.3899 64.9696 95.5681C64.9251 95.5961 64.8819 95.6241 64.8387 95.6503C63.4069 96.5609 61.9312 97.3351 60.4222 97.9674C60.1273 98.0897 59.8337 98.2086 59.5363 98.3187C59.2262 98.4375 58.9161 98.5493 58.6022 98.6542C56.2669 99.4425 53.8772 99.8871 51.4735 99.9805C51.1494 99.9945 50.8228 99.9997 50.4949 99.9997C50.3322 99.9997 50.1721 99.998 50.0094 99.9962C49.9598 99.9962 49.9102 99.9945 49.8607 99.9927C49.7171 99.9875 49.5684 99.984 49.4184 99.9788C46.518 99.8544 43.6412 99.2183 40.8586 98.0863L40.7404 98.0391C40.5574 97.9622 40.3757 97.887 40.1939 97.8067C39.3551 97.4414 38.5285 97.0325 37.7143 96.5799C37.0928 96.2357 36.4785 95.8664 35.8714 95.472C35.8659 95.47 35.8607 95.4664 35.8562 95.4616C35.7291 95.3812 35.6007 95.2973 35.4736 95.2117C35.4571 95.1994 35.4393 95.1872 35.4215 95.175C34.9475 94.8569 34.4785 94.5237 34.0146 94.1754C33.6244 92.9434 33.0754 92.7075 32.7348 91.6241C32.6356 91.3022 32.564 90.9656 32.5213 90.6211C32.5213 90.6176 32.52 90.6141 32.52 90.6088C32.5556 91.2589 32.3687 89.4555 32.5187 90.6018C32.5174 90.5809 32.5162 90.5581 32.5149 90.5319C32.5111 90.469 32.506 90.3921 32.4984 90.296C32.0625 84.4438 32.0904 77.751 31.901 72.236C31.8883 71.8795 31.8752 71.5381 31.8616 71.2119C31.8578 71.1036 31.8527 70.997 31.8477 70.8921C31.8566 70.8607 31.8667 70.8275 31.8782 70.796C31.8806 70.787 31.8836 70.7782 31.8871 70.7698C31.8908 70.759 31.895 70.7485 31.8998 70.7384C31.9023 70.7331 31.9061 70.7261 31.9087 70.7209C31.9105 70.7149 31.9126 70.7091 31.915 70.7034C31.9265 70.679 31.9392 70.6527 31.9531 70.6283C31.9595 70.6178 31.9646 70.609 31.9709 70.6003C31.9753 70.5914 31.9804 70.5832 31.9862 70.5759C31.9901 70.5675 31.9948 70.5598 32.0002 70.5531C32.0053 70.5461 32.0103 70.5374 32.0167 70.5287C32.0194 70.5232 32.0229 70.5184 32.0269 70.5147C32.0369 70.4988 32.048 70.4842 32.0599 70.471C32.1052 70.4136 32.1537 70.3611 32.2048 70.3137C32.2226 70.298 32.2416 70.2823 32.2594 70.2648C32.3875 70.1595 32.5224 70.0705 32.6623 69.9992C32.7106 69.9747 32.7589 69.952 32.811 69.9276C32.8301 69.9206 32.8479 69.9118 32.8669 69.9031C32.8949 69.8909 32.9229 69.8786 32.9521 69.8699C33.097 69.8105 33.2533 69.7598 33.4223 69.7126C33.4427 69.7074 33.4643 69.7021 33.4859 69.6951C33.5164 69.6864 33.5482 69.6794 33.5799 69.6724C33.6232 69.6619 33.6676 69.6515 33.7121 69.641C34.0896 69.5588 34.5179 69.4977 34.9907 69.4575C35.0352 69.454 35.0797 69.4505 35.1241 69.447C35.1762 69.4435 35.2284 69.44 35.2817 69.4365C35.3262 69.433 35.372 69.4313 35.4177 69.4295C35.4622 69.426 35.508 69.4243 35.555 69.4225C35.6833 69.4173 35.8155 69.412 35.9502 69.4086C36.3341 69.3981 36.7382 69.4016 37.1627 69.4138C37.3597 69.4208 37.5605 69.4278 37.7664 69.44C37.7804 69.44 37.7931 69.4418 37.8058 69.4418C37.985 69.4505 38.1655 69.461 38.351 69.475C38.4807 69.4837 38.6116 69.4924 38.7425 69.5029C38.8658 69.5134 38.9903 69.5239 39.1162 69.5361C39.214 69.5431 39.3119 69.5536 39.411 69.5623C39.4949 69.5711 39.5788 69.5798 39.6627 69.5868L39.777 69.5973C39.8393 69.6043 39.9016 69.6095 39.9651 69.6182C40.1049 69.634 40.2447 69.6497 40.3871 69.6654C40.5282 69.6829 40.6718 69.7004 40.8154 69.7179C40.959 69.7353 41.1039 69.7546 41.2488 69.7738C41.264 69.7755 41.278 69.7773 41.292 69.779C41.4242 69.7982 41.5564 69.8157 41.6898 69.8349C41.7203 69.8384 41.7521 69.8419 41.7826 69.8472C41.9098 69.8647 42.0395 69.8853 42.1679 69.9041C42.2073 69.9099 42.2465 69.9156 42.2861 69.9215C42.3866 69.9366 42.4858 69.9496 42.5871 69.966C42.7205 69.987 42.8565 70.0062 42.9887 70.0306C43.0916 70.0464 43.1946 70.0621 43.2975 70.0796C43.4589 70.1058 43.6229 70.1338 43.7868 70.1635C43.8491 70.1739 43.9114 70.1844 43.9737 70.1967C44.4414 70.277 44.9142 70.3662 45.3946 70.4588C46.1228 70.6003 46.8625 70.7541 47.6073 70.9201C48.3533 71.0861 49.1036 71.2615 49.8581 71.4461C50.0488 71.4933 50.2394 71.5405 50.4313 71.5894C50.5177 71.6121 50.6042 71.6348 50.6906 71.6575C50.838 71.6942 50.9854 71.7327 51.1329 71.7711C51.2803 71.8096 51.4277 71.848 51.5752 71.8882C51.7505 71.9354 51.9272 71.9826 52.1026 72.0297C53.2579 72.3443 54.4068 72.6798 55.5278 73.031C55.7121 73.0887 55.8963 73.1481 56.0794 73.2058C56.4454 73.3229 56.808 73.4417 57.1673 73.5623C57.2664 73.5937 57.3643 73.6269 57.4621 73.6601C57.7062 73.744 57.9502 73.8279 58.1904 73.9135L58.2323 73.9292C58.409 73.9887 58.5818 74.0498 58.7547 74.1127C59.1627 74.2595 59.5638 74.4081 59.9583 74.5583C60.2201 74.6579 60.4789 74.7587 60.7348 74.8606C61.1174 75.0127 61.4923 75.1665 61.857 75.322C61.9473 75.3604 62.0375 75.3989 62.1265 75.4356C62.3934 75.5491 62.6565 75.6645 62.9119 75.7798C63.1153 75.8707 63.3135 75.9633 63.5093 76.0559C63.705 76.1485 63.8969 76.2411 64.085 76.3338C64.2057 76.3932 64.3252 76.4561 64.4447 76.5155C64.6162 76.6029 64.7853 76.6902 64.9505 76.7776C65.0014 76.8038 65.0509 76.8318 65.1005 76.858C65.1323 76.8772 65.1628 76.8929 65.1933 76.9104C65.253 76.9436 65.314 76.9751 65.3725 77.0083C65.4322 77.0397 65.4907 77.0729 65.5491 77.1079C65.6063 77.1393 65.6648 77.1725 65.7207 77.2057C65.7779 77.2372 65.8338 77.2704 65.8897 77.3053C65.9368 77.3316 65.9825 77.3595 66.027 77.3875C66.1172 77.4417 66.2075 77.4958 66.2952 77.5517C66.3384 77.5797 66.3816 77.6059 66.4248 77.6339L66.5239 77.6968C66.5379 77.7073 66.5519 77.716 66.5659 77.7247C66.5976 77.7457 66.6307 77.7684 66.6625 77.7894C66.7362 77.8366 66.8086 77.8873 66.8798 77.9344C66.9751 78.0008 67.0679 78.0673 67.1569 78.1319C67.2471 78.1983 67.3348 78.2647 67.4187 78.3294C67.4327 78.3398 67.4454 78.3503 67.4593 78.3608C67.4784 78.3748 67.4975 78.3905 67.5165 78.4045C67.5814 78.4552 67.6436 78.5076 67.7059 78.5583C67.8279 78.6614 67.9436 78.7627 68.0516 78.8641C68.0757 78.8868 68.0986 78.9095 68.1228 78.9305C68.2028 79.0091 68.2791 79.086 68.3503 79.1646C68.3503 79.1664 68.3503 79.1664 68.3515 79.1664C68.3757 79.1909 68.3986 79.2171 68.4214 79.2415C68.4405 79.266 68.4608 79.287 68.4799 79.3114C68.546 79.3901 68.607 79.4652 68.6629 79.5421C68.6817 79.5658 68.6995 79.5909 68.7163 79.6172C68.7237 79.6257 68.7305 79.635 68.7366 79.6452C68.7621 79.6802 68.7849 79.7151 68.8065 79.75C68.8099 79.7549 68.8129 79.7601 68.8154 79.7658C68.8459 79.8147 68.8739 79.8636 68.9006 79.9126C68.9133 79.937 68.9273 79.9615 68.9387 79.986C68.954 80.0157 68.9692 80.0471 68.9819 80.0768C68.9934 80.1013 69.0035 80.1275 69.0137 80.152C69.0407 80.215 69.0636 80.281 69.0823 80.3494C69.0966 80.3958 69.1081 80.4437 69.1166 80.4927C69.1263 80.5391 69.1335 80.5865 69.1383 80.6343Z" fill="#2F2E41"/>
<path opacity="0.2" d="M69.1386 80.6349C69.1373 80.9407 69.1348 81.3688 69.1246 81.8983C69.1233 81.9717 69.1208 82.0468 69.1195 82.1237C69.1068 82.8664 69.0877 83.7838 69.061 84.8201C69.0598 84.883 69.0585 84.9441 69.056 85.0071C69.0204 86.2722 68.9644 87.7453 68.8679 90.0782C68.6887 94.3875 68.376 90.6706 68.0621 92.1822C67.1902 91.4447 66.2345 90.6723 65.2126 89.879C65.0284 89.7357 64.8424 89.5918 64.6547 89.4474C62.611 87.8799 60.3284 86.2373 57.9454 84.6104C57.8514 84.5457 57.756 84.4811 57.662 84.4182C52.2033 80.7083 46.2451 77.0998 41.4181 74.6918C40.4865 74.2269 39.5969 73.8075 38.7606 73.4388C36.9991 72.6647 35.4765 72.123 34.3047 71.8888C33.0846 71.6442 32.2419 71.7315 31.9013 72.2366C31.8886 71.8801 31.8755 71.5387 31.8619 71.2125C31.8568 71.1042 31.8518 70.9976 31.8467 70.8928C31.8545 70.864 31.8647 70.8365 31.8746 70.8088C31.876 70.8048 31.877 70.8006 31.8785 70.7966C31.8809 70.7876 31.8839 70.7788 31.8874 70.7704C31.8911 70.7596 31.8953 70.7491 31.9001 70.739C31.9042 70.7266 31.9093 70.7149 31.9153 70.704C31.9267 70.6796 31.9395 70.6533 31.9534 70.6289C31.9637 70.6106 31.9748 70.593 31.9865 70.5764C31.9904 70.5681 31.9951 70.5604 32.0005 70.5537C32.0055 70.5467 32.0106 70.538 32.017 70.5293C32.0197 70.5238 32.0232 70.519 32.0272 70.5153C32.0372 70.4994 32.0483 70.4848 32.0602 70.4716C32.1055 70.4142 32.154 70.3617 32.2051 70.3143C32.2229 70.2986 32.2419 70.2829 32.2597 70.2654C32.3878 70.1601 32.5227 70.0711 32.6626 69.9998C32.7109 69.9753 32.7592 69.9526 32.8113 69.9281C32.8304 69.9212 32.8482 69.9124 32.8672 69.9037C32.8952 69.8915 32.9232 69.8792 32.9524 69.8705C33.0973 69.8111 33.2536 69.7604 33.4226 69.7132C33.4735 69.6992 33.5269 69.6853 33.5802 69.673C33.6235 69.6625 33.6679 69.6521 33.7124 69.6416C34.0899 69.5594 34.5182 69.4983 34.991 69.4581C35.0355 69.4546 35.0799 69.4511 35.1244 69.4476C35.1765 69.4441 35.2286 69.4406 35.282 69.4371C35.3265 69.4336 35.3723 69.4319 35.418 69.4301C35.4625 69.4266 35.5083 69.4249 35.5553 69.4231C35.6836 69.4179 35.8158 69.4126 35.9505 69.4092C36.3344 69.4004 36.7385 69.4039 37.163 69.4161C37.36 69.4214 37.5608 69.4301 37.7667 69.4424C37.7794 69.4424 37.7934 69.4441 37.8061 69.4441C37.9853 69.4511 38.1671 69.4633 38.3513 69.4756C38.481 69.4843 38.6119 69.493 38.7428 69.5035C38.8661 69.514 38.9906 69.5245 39.1164 69.5367C39.2143 69.5437 39.3122 69.5542 39.4113 69.5629C39.4952 69.5717 39.5791 69.5804 39.6629 69.5874C39.7634 69.5979 39.8638 69.6084 39.9654 69.6188C40.1052 69.6346 40.245 69.6503 40.3874 69.666C40.5285 69.6835 40.6721 69.701 40.8157 69.7184C40.9593 69.7359 41.1042 69.7551 41.2491 69.7744C41.2643 69.7761 41.2783 69.7779 41.2923 69.7796C41.4245 69.7988 41.5567 69.8163 41.6901 69.8355C42.4298 69.9386 43.1911 70.0592 43.974 70.1973C44.4417 70.2794 44.9153 70.3673 45.3949 70.4611C46.1231 70.6027 46.8628 70.7564 47.6076 70.9207C48.3536 71.0867 49.1039 71.262 49.8584 71.4467C50.0491 71.4939 50.2397 71.5411 50.4316 71.59C50.6655 71.6494 50.8993 71.71 51.1332 71.7717C51.2806 71.8102 51.428 71.8486 51.5755 71.8888C51.7508 71.936 51.9275 71.9832 52.1029 72.0304C53.2582 72.3449 54.4071 72.6804 55.5281 73.0317C55.7124 73.0893 55.8966 73.1487 56.0797 73.2064C56.4457 73.3235 56.8083 73.4423 57.1676 73.5629C57.2667 73.5961 57.3646 73.6293 57.4624 73.6625C57.7077 73.7464 57.9505 73.8302 58.1907 73.9141V73.9159C58.2047 73.9194 58.2187 73.9246 58.2326 73.9299C58.408 73.991 58.5821 74.0522 58.755 74.1151C59.163 74.2619 59.5642 74.4098 59.9586 74.5589C60.2204 74.6603 60.4797 74.7599 60.7351 74.8613C61.1177 75.015 61.4926 75.1688 61.8574 75.3226C61.9476 75.361 62.0378 75.3995 62.1268 75.4362C62.3937 75.5515 62.6555 75.6662 62.9122 75.7804C63.1156 75.8713 63.3139 75.9639 63.5096 76.0565C63.7053 76.1491 63.8972 76.2418 64.0853 76.3344C64.2073 76.3938 64.3268 76.4549 64.445 76.5144C64.6178 76.6017 64.7856 76.6891 64.9508 76.7782C65.0017 76.8044 65.0512 76.8324 65.1008 76.8586C65.1936 76.9075 65.2838 76.9582 65.3728 77.0089C65.4325 77.0403 65.491 77.0735 65.5494 77.1085C65.6066 77.14 65.6651 77.1732 65.721 77.2064C65.7782 77.2378 65.8341 77.271 65.89 77.306C65.9371 77.3322 65.9828 77.3601 66.0273 77.3881C66.1175 77.4423 66.2078 77.4964 66.2955 77.5524C66.3387 77.5803 66.3819 77.6065 66.4251 77.6345L66.5242 77.6974C66.5382 77.7079 66.5522 77.7166 66.5662 77.7253C66.6742 77.7952 66.7784 77.8651 66.8801 77.935C66.9754 78.0015 67.0682 78.0679 67.1572 78.1325C67.2627 78.2094 67.3631 78.2845 67.4596 78.3614C67.4787 78.3754 67.4978 78.3911 67.5168 78.4051C67.5817 78.4558 67.6439 78.5082 67.7062 78.5589C67.8282 78.662 67.9439 78.7633 68.0519 78.8647C68.1587 78.966 68.2578 79.0657 68.3506 79.1653C68.3506 79.167 68.3506 79.167 68.3518 79.167C68.3963 79.2159 68.4395 79.2649 68.4802 79.312C68.5463 79.3907 68.6073 79.4658 68.6632 79.5427C68.682 79.5664 68.6998 79.5915 68.7166 79.6178C68.724 79.6263 68.7308 79.6356 68.7369 79.6458C68.7636 79.686 68.7903 79.7262 68.8158 79.7664C68.8463 79.8153 68.8742 79.8642 68.9009 79.9132C68.9136 79.9376 68.9276 79.9621 68.939 79.9866C68.9543 80.0163 68.9695 80.0477 68.9822 80.0774C68.9937 80.1019 69.0039 80.1281 69.014 80.1526C69.041 80.2156 69.0639 80.2816 69.0826 80.35C69.0965 80.3966 69.108 80.4445 69.117 80.4933C69.1266 80.5398 69.1338 80.5871 69.1386 80.6349Z" fill="black"/>
<g clip-path="url(#clip0_1215_397)">
<path d="M33.0079 71.8467L32.7174 72.8453M33.5889 71.8467L33.8794 72.8453M32.4269 72.8453H34.1699M35.1867 71.647V68.4517C35.1867 68.3987 35.1714 68.3479 35.1441 68.3104C35.1169 68.273 35.0799 68.252 35.0414 68.252H31.5554C31.4784 68.252 31.4102 68.3458 31.4102 68.4517V71.647C31.4102 71.7529 31.4784 71.8467 31.5554 71.8467H35.0414C35.1184 71.8467 35.1867 71.7529 35.1867 71.647Z" stroke="black" stroke-linecap="round" stroke-linejoin="round"/>
<path d="M32.717 69.4512L32.2812 70.0503L32.717 70.6494M33.879 69.4512L34.3148 70.0503L33.879 70.6494" stroke="black" stroke-linecap="round" stroke-linejoin="round"/>
</g>
<defs>
<clipPath id="clip0_1215_397">
<rect width="4.067" height="5.5919" fill="white" transform="translate(31.2646 67.4531)"/>
</clipPath>
</defs>
</svg>
