<svg width="103" height="84" viewBox="0 0 103 84" fill="none" xmlns="http://www.w3.org/2000/svg">
<g clip-path="url(#clip0_1195_373)">
<path d="M62.1472 77.7231C63.6383 78.7226 65.3372 83.7752 65.3372 83.7752C65.3372 83.7752 60.019 84.122 58.5283 83.123C58.1736 82.8854 57.8692 82.5803 57.6325 82.225C57.3957 81.8697 57.2313 81.4713 57.1486 81.0524C57.0658 80.6335 57.0664 80.2025 57.1502 79.7838C57.2341 79.3652 57.3996 78.9672 57.6373 78.6125C57.8749 78.2578 58.1801 77.9535 58.5354 77.7168C58.8907 77.4802 59.2892 77.3159 59.708 77.2333C60.1268 77.1507 60.5578 77.1514 60.9763 77.2355C61.3948 77.3195 61.7927 77.4852 62.1472 77.7231Z" fill="#F1F1F1"/>
<path d="M65.398 83.7362L65.3147 83.8027C62.2756 79.9893 57.6895 78.6721 57.6436 78.6593L57.6722 78.5566C57.7185 78.5696 62.3368 79.8952 65.398 83.7362Z" fill="white"/>
<path d="M70.1212 75.7064C70.0261 78.1895 65.3069 83.8597 65.3069 83.8597C65.3069 83.8597 61.0376 77.8434 61.1324 75.3612C61.1782 74.169 61.6956 73.0438 62.5708 72.2331C63.446 71.4224 64.6074 70.9927 65.7994 71.0385C66.9913 71.0843 68.1163 71.6018 68.9268 72.4772C69.7373 73.3526 70.1669 74.5142 70.1212 75.7064Z" fill="#F1F1F1"/>
<path d="M65.3956 83.9048L65.2568 83.8548C67.5432 77.5046 65.7657 71.1433 65.7475 71.0798L65.8893 71.0391C65.9076 71.103 67.6985 77.5085 65.3956 83.9048Z" fill="white"/>
<path d="M53.1766 61.5791H12.7306C12.01 61.5783 11.3192 61.2916 10.8096 60.7819C10.3001 60.2723 10.0135 59.5813 10.0127 58.8606V12.6286C10.0135 11.9079 10.3001 11.2169 10.8096 10.7073C11.3192 10.1976 12.01 9.91097 12.7306 9.91016H53.1766C53.8972 9.91097 54.588 10.1976 55.0975 10.7073C55.607 11.2169 55.8937 11.9079 55.8945 12.6286V58.8606C55.8937 59.5813 55.607 60.2723 55.0975 60.782C54.588 61.2916 53.8972 61.5783 53.1766 61.5791Z" fill="#E6E6E6"/>
<path d="M51.2863 59.3133H14.6202C13.9804 59.3126 13.367 59.058 12.9146 58.6055C12.4622 58.153 12.2078 57.5395 12.207 56.8996V14.5895C12.2078 13.9496 12.4622 13.336 12.9146 12.8835C13.367 12.431 13.9804 12.1765 14.6202 12.1758H51.2863C51.9261 12.1765 52.5395 12.431 52.9919 12.8835C53.4443 13.336 53.6988 13.9496 53.6995 14.5895V56.8996C53.6988 57.5395 53.4443 58.153 52.9919 58.6055C52.5395 59.058 51.9261 59.3126 51.2863 59.3133Z" fill="white"/>
<path d="M49.8277 18.197H31.3307C31.2514 18.1971 31.1728 18.1816 31.0996 18.1513C31.0263 18.121 30.9597 18.0766 30.9036 18.0206C30.8474 17.9645 30.8029 17.898 30.7726 17.8247C30.7422 17.7515 30.7266 17.6729 30.7266 17.5936C30.7266 17.5143 30.7422 17.4358 30.7726 17.3625C30.8029 17.2893 30.8474 17.2227 30.9036 17.1667C30.9597 17.1106 31.0263 17.0662 31.0996 17.0359C31.1728 17.0056 31.2514 16.9901 31.3307 16.9902H49.8277C49.907 16.9901 49.9855 17.0056 50.0588 17.0359C50.1321 17.0662 50.1987 17.1106 50.2548 17.1667C50.3109 17.2227 50.3554 17.2893 50.3858 17.3625C50.4162 17.4358 50.4318 17.5143 50.4318 17.5936C50.4318 17.6729 50.4162 17.7515 50.3858 17.8247C50.3554 17.898 50.3109 17.9645 50.2548 18.0206C50.1987 18.0766 50.1321 18.121 50.0588 18.1513C49.9855 18.1816 49.907 18.1971 49.8277 18.197Z" fill="#E4E4E4"/>
<path d="M49.8278 20.5818H31.3308C31.1708 20.5818 31.0174 20.5182 30.9042 20.4051C30.7911 20.2919 30.7275 20.1384 30.7275 19.9784C30.7275 19.8184 30.7911 19.6649 30.9042 19.5517C31.0174 19.4386 31.1708 19.375 31.3308 19.375H49.8278C49.9878 19.375 50.1413 19.4386 50.2544 19.5517C50.3675 19.6649 50.4311 19.8184 50.4311 19.9784C50.4311 20.1384 50.3675 20.2919 50.2544 20.4051C50.1413 20.5182 49.9878 20.5818 49.8278 20.5818Z" fill="#E4E4E4"/>
<path d="M39.3488 22.9666H31.3308C31.1708 22.9666 31.0174 22.903 30.9042 22.7899C30.7911 22.6767 30.7275 22.5232 30.7275 22.3632C30.7275 22.2031 30.7911 22.0497 30.9042 21.9365C31.0174 21.8233 31.1708 21.7598 31.3308 21.7598H39.3488C39.5088 21.7598 39.6623 21.8233 39.7754 21.9365C39.8885 22.0497 39.9521 22.2031 39.9521 22.3632C39.9521 22.5232 39.8885 22.6767 39.7754 22.7899C39.6623 22.903 39.5088 22.9666 39.3488 22.9666Z" fill="#E4E4E4"/>
<path d="M47.5971 32.5954H18.3961C18.3168 32.5955 18.2383 32.58 18.165 32.5498C18.0917 32.5195 18.0251 32.4751 17.969 32.419C17.9129 32.363 17.8684 32.2964 17.838 32.2232C17.8076 32.1499 17.792 32.0714 17.792 31.9921C17.792 31.9127 17.8076 31.8342 17.838 31.7609C17.8684 31.6877 17.9129 31.6211 17.969 31.5651C18.0251 31.5091 18.0917 31.4646 18.165 31.4344C18.2383 31.4041 18.3168 31.3886 18.3961 31.3887H47.5971C47.6764 31.3886 47.7549 31.4041 47.8282 31.4344C47.9015 31.4646 47.9681 31.5091 48.0242 31.5651C48.0803 31.6211 48.1249 31.6877 48.1552 31.7609C48.1856 31.8342 48.2012 31.9127 48.2012 31.9921C48.2012 32.0714 48.1856 32.1499 48.1552 32.2232C48.1249 32.2964 48.0803 32.363 48.0242 32.419C47.9681 32.4751 47.9015 32.5195 47.8282 32.5498C47.7549 32.58 47.6764 32.5955 47.5971 32.5954Z" fill="#E4E4E4"/>
<path d="M47.5973 34.9803H18.3962C18.2362 34.9803 18.0828 34.9167 17.9697 34.8035C17.8565 34.6904 17.793 34.5369 17.793 34.3768C17.793 34.2168 17.8565 34.0633 17.9697 33.9502C18.0828 33.837 18.2362 33.7734 18.3962 33.7734H47.5973C47.7573 33.7734 47.9107 33.837 48.0238 33.9502C48.137 34.0633 48.2005 34.2168 48.2005 34.3768C48.2005 34.5369 48.137 34.6904 48.0238 34.8035C47.9107 34.9167 47.7573 34.9803 47.5973 34.9803Z" fill="#E4E4E4"/>
<path d="M47.5972 40.3923H18.3962C18.2362 40.3923 18.0828 40.3287 17.9697 40.2156C17.8565 40.1024 17.793 39.949 17.793 39.7889C17.793 39.6289 17.8565 39.4754 17.9697 39.3623C18.0828 39.2491 18.2362 39.1855 18.3962 39.1855H47.5972C47.7572 39.1855 47.9107 39.2491 48.0238 39.3623C48.1369 39.4754 48.2005 39.6289 48.2005 39.7889C48.2005 39.949 48.1369 40.1024 48.0238 40.2156C47.9107 40.3287 47.7572 40.3923 47.5972 40.3923Z" fill="#E4E4E4"/>
<path d="M47.5973 42.7771H18.3962C18.2362 42.7771 18.0828 42.7136 17.9697 42.6004C17.8565 42.4872 17.793 42.3338 17.793 42.1737C17.793 42.0137 17.8565 41.8602 17.9697 41.747C18.0828 41.6339 18.2362 41.5703 18.3962 41.5703H47.5973C47.7573 41.5703 47.9107 41.6339 48.0238 41.747C48.137 41.8602 48.2005 42.0137 48.2005 42.1737C48.2005 42.3338 48.137 42.4872 48.0238 42.6004C47.9107 42.7136 47.7573 42.7771 47.5973 42.7771Z" fill="#E4E4E4"/>
<path d="M47.5972 48.1892H18.3962C18.2362 48.1892 18.0828 48.1256 17.9697 48.0125C17.8565 47.8993 17.793 47.7458 17.793 47.5858C17.793 47.4258 17.8565 47.2723 17.9697 47.1591C18.0828 47.046 18.2362 46.9824 18.3962 46.9824H47.5972C47.7572 46.9824 47.9107 47.046 48.0238 47.1591C48.1369 47.2723 48.2005 47.4258 48.2005 47.5858C48.2005 47.7458 48.1369 47.8993 48.0238 48.0125C47.9107 48.1256 47.7572 48.1892 47.5972 48.1892Z" fill="#E4E4E4"/>
<path d="M47.5973 50.5721H18.3962C18.2362 50.5721 18.0828 50.5085 17.9697 50.3953C17.8565 50.2822 17.793 50.1287 17.793 49.9686C17.793 49.8086 17.8565 49.6551 17.9697 49.542C18.0828 49.4288 18.2362 49.3652 18.3962 49.3652H47.5973C47.7573 49.3652 47.9107 49.4288 48.0238 49.542C48.137 49.6551 48.2005 49.8086 48.2005 49.9686C48.2005 50.1287 48.137 50.2822 48.0238 50.3953C47.9107 50.5085 47.7573 50.5721 47.5973 50.5721Z" fill="#E4E4E4"/>
<path d="M47.592 57.1775H39.574C39.414 57.1775 39.2605 57.114 39.1474 57.0008C39.0343 56.8876 38.9707 56.7341 38.9707 56.5741C38.9707 56.4141 39.0343 56.2606 39.1474 56.1474C39.2605 56.0343 39.414 55.9707 39.574 55.9707H47.592C47.752 55.9707 47.9054 56.0343 48.0186 56.1474C48.1317 56.2606 48.1953 56.4141 48.1953 56.5741C48.1953 56.7341 48.1317 56.8876 48.0186 57.0008C47.9054 57.114 47.752 57.1775 47.592 57.1775Z" fill="#488A4C"/>
<path d="M26.2104 20.0484C26.212 21.3442 25.7735 22.6021 24.9665 23.6159C24.7055 23.9459 24.4084 24.2456 24.0807 24.5094C23.1863 25.235 22.0936 25.6734 20.9457 25.767C20.7895 25.7806 20.632 25.7867 20.4732 25.7867C20.1587 25.7868 19.8447 25.7609 19.5345 25.7092C19.425 25.692 19.318 25.6711 19.2109 25.6464C19.0246 25.605 18.8406 25.5536 18.6597 25.4926C18.0731 25.2973 17.5221 25.0081 17.0283 24.6361C16.8966 24.5377 16.7699 24.4331 16.6469 24.3223C16.4964 24.1888 16.3539 24.0466 16.2199 23.8965C16.1843 23.8571 16.1486 23.8165 16.1142 23.7759C15.5138 23.0731 15.0922 22.2356 14.8851 21.3348C14.678 20.4339 14.6917 19.4963 14.9248 18.6018C15.158 17.7074 15.6038 16.8825 16.2244 16.1975C16.8449 15.5124 17.6217 14.9875 18.4887 14.6674C19.3557 14.3473 20.2872 14.2415 21.2039 14.359C22.1205 14.4765 22.9953 14.8138 23.7535 15.3423C24.5118 15.8707 25.1312 16.5746 25.559 17.3939C25.9868 18.2133 26.2102 19.124 26.2104 20.0484Z" fill="#E4E4E4"/>
<path d="M20.2739 22.0078C21.5724 22.0078 22.625 20.955 22.625 19.6563C22.625 18.3575 21.5724 17.3047 20.2739 17.3047C18.9755 17.3047 17.9229 18.3575 17.9229 19.6563C17.9229 20.955 18.9755 22.0078 20.2739 22.0078Z" fill="#9E616A"/>
<path d="M22.8908 18.509C22.9015 18.2989 22.8422 18.0911 22.7223 17.9183L22.6374 17.7977C22.331 17.207 21.8253 16.6754 21.455 16.2865C21.1769 15.9948 20.8989 15.8545 20.6319 15.8681C20.4376 15.882 20.2567 15.9722 20.1287 16.1191C19.7771 16.0976 19.4268 16.1792 19.1209 16.3539C18.8149 16.5285 18.5666 16.7887 18.4062 17.1024C17.2804 17.6968 17.6163 19.4516 17.62 19.4701L17.892 19.9267L17.9227 19.8688C17.9227 19.8676 17.9264 19.8627 17.9313 19.8528C17.9842 19.7581 18.2721 19.2314 18.4665 18.8979C18.5375 18.7841 18.6318 18.6868 18.7433 18.6124C18.9254 18.4879 19.1347 18.409 19.3536 18.3822L19.9515 18.3047L19.7252 18.6444H21.3541L21.9803 18.5705C22.0431 18.8277 22.5402 19.8257 22.6004 19.9463L22.6053 19.9562L22.6386 20.0239L22.8244 19.5132C22.9329 19.1898 22.9558 18.8438 22.8908 18.509Z" fill="#2F2E41"/>
<path d="M17.0455 24.6483C17.1464 24.5154 17.6693 23.8952 18.8726 23.5666L19.5099 22.8566L22.0654 22.4492L23.3658 23.1679L24.9665 23.6158C24.7055 23.9458 24.4084 24.2455 24.0807 24.5093C23.1863 25.2349 22.0936 25.6733 20.9457 25.767C20.7895 25.7805 20.632 25.7867 20.4733 25.7867C20.1588 25.7867 19.8448 25.7608 19.5345 25.7091C19.425 25.6919 19.318 25.671 19.211 25.6464C19.0246 25.6049 18.8406 25.5535 18.6598 25.4925C18.0798 25.2998 17.5347 25.0147 17.0455 24.6483C17.0394 24.6446 17.0345 24.6397 17.0283 24.636L17.0455 24.6483Z" fill="#488A4C"/>
<path d="M65.5416 2.87825H0.365075C0.268284 2.87814 0.175487 2.83964 0.107045 2.77118C0.0386033 2.70272 0.000105516 2.60991 0 2.51309V0.365154C0.000105516 0.268342 0.0386033 0.175525 0.107045 0.107068C0.175487 0.0386108 0.268284 0.000105539 0.365075 0H65.5416C65.6384 0.000105539 65.7312 0.0386108 65.7996 0.107068C65.8681 0.175525 65.9066 0.268342 65.9067 0.365154V2.51309C65.9066 2.60991 65.8681 2.70272 65.7996 2.77118C65.7312 2.83964 65.6384 2.87814 65.5416 2.87825Z" fill="#488A4C"/>
<path d="M2.1189 1.85326C2.40516 1.85326 2.63721 1.62115 2.63721 1.33483C2.63721 1.04851 2.40516 0.816406 2.1189 0.816406C1.83264 0.816406 1.60059 1.04851 1.60059 1.33483C1.60059 1.62115 1.83264 1.85326 2.1189 1.85326Z" fill="white"/>
<path d="M4.0857 1.85326C4.37195 1.85326 4.60401 1.62115 4.60401 1.33483C4.60401 1.04851 4.37195 0.816406 4.0857 0.816406C3.79944 0.816406 3.56738 1.04851 3.56738 1.33483C3.56738 1.62115 3.79944 1.85326 4.0857 1.85326Z" fill="white"/>
<path d="M6.05347 1.85326C6.33973 1.85326 6.57178 1.62115 6.57178 1.33483C6.57178 1.04851 6.33973 0.816406 6.05347 0.816406C5.76721 0.816406 5.53516 1.04851 5.53516 1.33483C5.53516 1.62115 5.76721 1.85326 6.05347 1.85326Z" fill="white"/>
<path d="M63.6145 0.978284H61.349C61.3047 0.977905 61.2624 0.960054 61.2313 0.928617C61.2001 0.89718 61.1826 0.854704 61.1826 0.810435C61.1826 0.766165 61.2001 0.723688 61.2313 0.692251C61.2624 0.660815 61.3047 0.642963 61.349 0.642584H63.6145C63.6366 0.642395 63.6586 0.646596 63.6791 0.654947C63.6997 0.663297 63.7183 0.67563 63.7341 0.691235C63.7498 0.706841 63.7623 0.725408 63.7708 0.745866C63.7793 0.766325 63.7837 0.78827 63.7837 0.810435C63.7837 0.832599 63.7793 0.854543 63.7708 0.875002C63.7623 0.895461 63.7498 0.914029 63.7341 0.929634C63.7183 0.945239 63.6997 0.957572 63.6791 0.965923C63.6586 0.974273 63.6366 0.978474 63.6145 0.978284Z" fill="white"/>
<path d="M63.614 1.60719H61.3485C61.304 1.60719 61.2613 1.58951 61.2298 1.55803C61.1983 1.52655 61.1807 1.48386 61.1807 1.43934C61.1807 1.39482 61.1983 1.35213 61.2298 1.32065C61.2613 1.28917 61.304 1.27149 61.3485 1.27149H63.614C63.6361 1.2713 63.6581 1.2755 63.6786 1.28385C63.6991 1.2922 63.7178 1.30454 63.7335 1.32014C63.7493 1.33575 63.7618 1.35431 63.7703 1.37477C63.7788 1.39523 63.7832 1.41718 63.7832 1.43934C63.7832 1.4615 63.7788 1.48345 63.7703 1.50391C63.7618 1.52437 63.7493 1.54293 63.7335 1.55854C63.7178 1.57415 63.6991 1.58648 63.6786 1.59483C63.6581 1.60318 63.6361 1.60738 63.614 1.60719Z" fill="white"/>
<path d="M63.6136 2.23609H61.3481C61.3038 2.23573 61.2615 2.21789 61.2303 2.18645C61.1991 2.15501 61.1816 2.11252 61.1816 2.06824C61.1816 2.02396 61.1991 1.98147 61.2303 1.95003C61.2615 1.91859 61.3038 1.90075 61.3481 1.90039H63.6136C63.6578 1.90075 63.7002 1.91859 63.7314 1.95003C63.7625 1.98147 63.78 2.02396 63.78 2.06824C63.78 2.11252 63.7625 2.15501 63.7314 2.18645C63.7002 2.21789 63.6578 2.23573 63.6136 2.23609Z" fill="white"/>
<path d="M81.5071 57.7616C81.4028 57.6481 81.3247 57.5132 81.2782 57.3663C81.2317 57.2193 81.2181 57.064 81.2381 56.9112C81.2581 56.7584 81.3114 56.6118 81.3942 56.4818C81.477 56.3519 81.5873 56.2416 81.7173 56.1589L80.8535 52.5137L82.6816 53.1817L83.2216 56.5408C83.3461 56.7685 83.3828 57.0339 83.3247 57.2868C83.2666 57.5397 83.1178 57.7625 82.9065 57.9129C82.6951 58.0634 82.4359 58.1311 82.178 58.1032C81.9201 58.0753 81.6814 57.9538 81.5071 57.7616Z" fill="#9E616A"/>
<path d="M77.1113 42.4873L77.845 44.3743C77.845 44.3743 77.5306 46.2613 78.0546 46.6807C78.5787 47.1 78.369 47.1 78.369 47.4145C78.3871 47.6401 78.4524 47.8593 78.5608 48.058C78.6691 48.2567 78.818 48.4303 78.9979 48.5677C79.4171 48.8822 81.3037 55.277 81.3037 55.277H83.1903C83.1294 54.7896 83.1294 54.2966 83.1903 53.8093C83.2951 53.0755 82.8759 51.1885 82.6663 50.874C82.4566 50.5595 82.6663 50.1402 82.6663 49.5112C82.6663 48.8822 82.247 48.5677 82.247 47.5193C82.247 46.471 80.9893 38.294 81.0941 37.3505C81.1989 36.407 80.046 35.5684 80.046 35.5684H78.9979L77.1113 42.4873Z" fill="#E4E4E4"/>
<path d="M81.9364 82.3558H80.5422L79.8789 76.9766L81.9367 76.9767L81.9364 82.3558Z" fill="#9E616A"/>
<path d="M82.2917 83.7078L77.7959 83.7076V83.6508C77.7959 83.1866 77.9803 82.7414 78.3085 82.4132C78.6366 82.0849 79.0817 81.9005 79.5458 81.9005L80.3671 81.2773L81.8993 81.9006L82.2918 81.9006L82.2917 83.7078Z" fill="#2F2E41"/>
<path d="M69.1814 82.3156L67.8721 81.8364L69.0966 76.5566L71.0293 77.2639L69.1814 82.3156Z" fill="#9E616A"/>
<path d="M69.0503 83.7075L64.8281 82.1625L64.8477 82.1091C65.0071 81.6732 65.3332 81.3185 65.7541 81.123C66.175 80.9275 66.6564 80.9072 67.0922 81.0667L68.0776 80.7637L69.3025 81.8755L69.671 82.0104L69.0503 83.7075Z" fill="#2F2E41"/>
<path d="M78.8646 57.2019C78.8646 57.2019 77.9213 61.8145 79.4935 61.3952C81.0656 60.9758 80.4368 56.9922 80.4368 56.9922L78.8646 57.2019Z" fill="#A0616A"/>
<path d="M71.9464 53.375C71.9464 53.375 70.6887 55.0523 70.6887 55.9958C70.6887 56.9393 70.2695 65.326 70.2695 65.326C70.2695 65.326 67.0872 77.8147 67.7161 78.4437C68.3449 79.0727 70.5459 79.7017 70.8604 79.3872C71.1748 79.0727 73.9378 66.1646 73.9378 66.1646L76.5581 59.1408L78.9687 69.2048L79.1783 79.8978C79.1783 79.8978 81.7986 80.5268 82.3226 80.1074C82.8467 79.6881 82.9515 69.5193 82.3226 65.955C81.6938 62.3906 82.4274 54.2137 82.4274 54.2137L71.9464 53.375Z" fill="#2F2E41"/>
<path d="M76.1502 30.9931C77.8867 30.9931 79.2945 29.585 79.2945 27.8481C79.2945 26.1112 77.8867 24.7031 76.1502 24.7031C74.4136 24.7031 73.0059 26.1112 73.0059 27.8481C73.0059 29.585 74.4136 30.9931 76.1502 30.9931Z" fill="#9E616A"/>
<path d="M72.1562 35.5531C72.1562 35.5531 73.0615 34.2039 74.8433 32.4217C75.7866 32.1072 77.4209 32.2905 77.9876 32.4217C80.6078 35.8812 80.7727 35.6513 81.4548 37.5843C81.6316 38.0855 81.7201 38.5671 81.6415 38.9602C81.327 40.5327 82.3227 53.2699 82.4275 53.6893C82.5323 54.1086 83.266 54.6327 82.5323 54.6327C81.7987 54.6327 70.6888 54.2134 70.8984 53.8989C71.1081 53.5844 72.1562 35.5531 72.1562 35.5531Z" fill="#E4E4E4"/>
<path opacity="0.1" d="M71.6768 53.7622L74.8294 46.8242L73.2531 54.2029L71.6768 53.7622Z" fill="black"/>
<path d="M75.1984 30.7625C75.4928 30.5433 75.7638 30.2945 76.0073 30.0199C76.2517 29.7428 76.4047 29.3971 76.4455 29.0298C76.4633 28.8467 76.4346 28.6621 76.3619 28.4931C76.2892 28.324 76.175 28.1762 76.0298 28.0632C75.7303 27.8516 75.2736 27.8639 75.0251 28.1335C75.1452 27.7452 75.2548 27.2872 75.0116 26.9616C74.7902 26.6653 74.3773 26.615 74.0206 26.5173C73.3326 26.3257 72.7407 25.8847 72.3604 25.2802L72.9661 25.4056L72.8986 24.9736L73.4005 25.1482L73.4049 24.5466L73.923 24.8366C74.5573 24.255 75.3931 23.9435 76.2532 23.9682C76.6871 23.9754 77.1121 24.0921 77.4888 24.3074C77.8663 24.5258 78.1522 24.8733 78.2939 25.2859C78.5605 25.009 79.036 25.0305 79.3536 25.2468C79.6713 25.4632 79.8579 25.8252 79.9861 26.1876C80.2398 26.8827 80.2989 27.6339 80.1569 28.3601C80.0107 29.088 79.6186 29.7434 79.0464 30.2163C78.5208 30.6175 77.8952 30.8664 77.2377 30.9359C76.583 31.0038 75.9218 30.9755 75.2753 30.8519" fill="#2F2E41"/>
<path d="M70.6951 57.7479C70.7993 57.6345 70.8775 57.4995 70.9239 57.3526C70.9704 57.2056 70.9841 57.0503 70.9641 56.8975C70.944 56.7447 70.8907 56.5981 70.808 56.4682C70.7252 56.3382 70.6149 56.228 70.4849 56.1452L71.3486 52.5L69.5205 53.168L68.9806 56.5272C68.8561 56.7548 68.8194 57.0202 68.8775 57.2731C68.9356 57.526 69.0844 57.7488 69.2957 57.8993C69.507 58.0497 69.7662 58.1174 70.0241 58.0896C70.282 58.0617 70.5208 57.9401 70.6951 57.7479Z" fill="#9E616A"/>
<path d="M73.2041 35.5547H72.156C72.156 35.5547 71.0031 36.3934 71.1079 37.3368C71.2127 38.2803 69.9549 46.4573 69.9549 47.5057C69.9549 48.554 69.5357 48.8685 69.5357 49.4975C69.5357 50.1265 69.7453 50.5458 69.5357 50.8603C69.3261 51.1748 68.9069 53.0618 69.0117 53.7956C69.0726 54.283 69.0726 54.776 69.0117 55.2633H70.8982C70.8982 55.2633 72.7848 48.8685 73.2041 48.554C73.3839 48.4167 73.5328 48.243 73.6412 48.0443C73.7495 47.8457 73.8149 47.6264 73.8329 47.4008C73.8329 47.0863 73.6233 47.0863 74.1473 46.667C74.6714 46.2477 74.357 44.3607 74.357 44.3607L75.0906 42.4737L73.2041 35.5547Z" fill="#E4E4E4"/>
<path d="M102.853 84.0001H45.3598C45.3405 84.0001 45.3214 83.9964 45.3036 83.9891C45.2858 83.9817 45.2696 83.9709 45.2559 83.9573C45.2423 83.9437 45.2315 83.9275 45.2241 83.9097C45.2167 83.8919 45.2129 83.8728 45.2129 83.8536C45.2129 83.8343 45.2167 83.8152 45.2241 83.7974C45.2315 83.7796 45.2423 83.7634 45.2559 83.7498C45.2696 83.7362 45.2858 83.7254 45.3036 83.7181C45.3214 83.7107 45.3405 83.707 45.3598 83.707H102.853C102.872 83.707 102.892 83.7107 102.909 83.7181C102.927 83.7254 102.943 83.7362 102.957 83.7498C102.971 83.7634 102.981 83.7796 102.989 83.7974C102.996 83.8152 103 83.8343 103 83.8536C103 83.8728 102.996 83.8919 102.989 83.9097C102.981 83.9275 102.971 83.9437 102.957 83.9573C102.943 83.9709 102.927 83.9817 102.909 83.9891C102.892 83.9964 102.872 84.0001 102.853 84.0001Z" fill="#CACACA"/>
</g>
<defs>
<clipPath id="clip0_1195_373">
<rect width="103" height="84" fill="white"/>
</clipPath>
</defs>
</svg>
