<svg id="Layer_1" data-name="Layer 1" xmlns="http://www.w3.org/2000/svg" viewBox="0 0 512 512"><defs><style>.cls-1{fill:#d9e4e8;}.cls-2{fill:#141f38;}.cls-3{fill:#79d3d3;}</style></defs><title>speech-bubble-6-filled</title><path class="cls-1" d="M17.92,448.24a5,5,0,0,1-5.12-5V115A51.26,51.26,0,0,1,64,63.76H448A51.26,51.26,0,0,1,499.2,115v230.4a51.26,51.26,0,0,1-51.2,51.2H71.5L21.32,446.74A4.65,4.65,0,0,1,17.92,448.24Z"/><path class="cls-2" d="M448,76.56A38.44,38.44,0,0,1,486.4,115v230.4a38.44,38.44,0,0,1-38.4,38.4H66.2l-7.5,7.5-33.1,33.1V115A38.44,38.44,0,0,1,64,76.56H448M448,51H64A64,64,0,0,0,0,115V443.21A17.78,17.78,0,0,0,17.92,461a17.42,17.42,0,0,0,12.45-5.25L76.8,409.36H448a64,64,0,0,0,64-64V115a64,64,0,0,0-64-64Z"/><path class="cls-3" d="M166.4,255.76a25.6,25.6,0,1,1,25.6-25.6A25.63,25.63,0,0,1,166.4,255.76Z"/><path class="cls-2" d="M166.4,217.36a12.8,12.8,0,1,1-12.8,12.8,12.81,12.81,0,0,1,12.8-12.8m0-25.6a38.4,38.4,0,1,0,38.4,38.4,38.4,38.4,0,0,0-38.4-38.4Z"/><path class="cls-3" d="M256,255.76a25.6,25.6,0,1,1,25.6-25.6A25.63,25.63,0,0,1,256,255.76Z"/><path class="cls-2" d="M256,217.36a12.8,12.8,0,1,1-12.8,12.8,12.81,12.81,0,0,1,12.8-12.8m0-25.6a38.4,38.4,0,1,0,38.4,38.4,38.4,38.4,0,0,0-38.4-38.4Z"/><path class="cls-3" d="M345.6,255.76a25.6,25.6,0,1,1,25.6-25.6A25.63,25.63,0,0,1,345.6,255.76Z"/><path class="cls-2" d="M345.6,217.36a12.8,12.8,0,1,1-12.8,12.8,12.81,12.81,0,0,1,12.8-12.8m0-25.6a38.4,38.4,0,1,0,38.4,38.4,38.4,38.4,0,0,0-38.4-38.4Z"/></svg>