<svg width="97" height="80" viewBox="0 0 97 80" fill="none" xmlns="http://www.w3.org/2000/svg">
<g clip-path="url(#clip0_1195_372)">
<path d="M25.7461 18.3885L14.207 16.7939L16.5422 4.53516L28.938 7.07243L25.7461 18.3885Z" fill="#2F2E41"/>
<path d="M14.6533 71.4215V20.8496C14.6533 19.9331 15.3725 19.1875 16.2567 19.1875H95.3963C96.2804 19.1875 96.9997 19.9331 96.9997 20.8496V71.4215C96.9997 72.3379 96.2804 73.0835 95.3963 73.0835H16.2567C15.3725 73.0835 14.6533 72.3379 14.6533 71.4215ZM96.7092 20.8496C96.7092 20.0979 96.1214 19.4886 95.3963 19.4886H16.2567C15.5316 19.4886 14.9438 20.0979 14.9438 20.8496V71.4215C14.9438 72.1731 15.5316 72.7824 16.2567 72.7824H72.5087C85.8743 72.7824 96.7092 61.5509 96.7092 47.6961V20.8496Z" fill="#3F3D56"/>
<path d="M88.9872 26.7596L87.792 26.1727C88.2822 26.8819 88.7047 27.9895 88.9308 28.8708C89.3137 28.0498 89.931 27.0453 90.542 26.4452L89.2787 26.7821C90.0571 22.8275 92.9849 19.9885 96.3376 19.9885L96.3851 19.8457C92.8831 19.8457 89.782 22.6453 88.9872 26.7596Z" fill="#3F3D56"/>
<path d="M94.4884 32.7845H86.9364C86.6161 32.7845 86.3555 32.5143 86.3555 32.1823C86.3555 31.8502 86.6161 31.5801 86.9364 31.5801H94.4884C94.8088 31.5801 95.0694 31.8502 95.0694 32.1823C95.0694 32.5143 94.8088 32.7845 94.4884 32.7845Z" fill="#488A4C"/>
<path d="M72.0658 37.3093V53.2673C72.0658 54.6786 70.9583 55.8267 69.5969 55.8267H54.2023C52.8409 55.8267 51.7334 54.6786 51.7334 53.2673V37.3093C51.7334 35.8981 52.8409 34.75 54.2023 34.75H69.5969C70.9583 34.75 72.0658 35.8981 72.0658 37.3093ZM68.6419 55.5256C70.3725 55.5256 71.7754 54.0713 71.7754 52.2774V45.2219C71.7754 39.6047 67.3825 35.0511 61.9637 35.0511H54.2023C52.9992 35.0511 52.0239 36.0621 52.0239 37.3093V51.0408C52.0239 53.5177 53.9608 55.5256 56.3502 55.5256H68.6419Z" fill="#3F3D56"/>
<path d="M63.9491 41.268H58.9792C58.8539 41.268 58.752 41.1623 58.752 41.0324C58.752 40.9025 58.8539 40.7969 58.9792 40.7969H63.9491C64.0744 40.7969 64.1763 40.9025 64.1763 41.0324C64.1763 41.1623 64.0744 41.268 63.9491 41.268Z" fill="#3F3D56"/>
<path d="M63.9491 46.2914H58.9792C58.8539 46.2914 58.752 46.1857 58.752 46.0558C58.752 45.9259 58.8539 45.8203 58.9792 45.8203H63.9491C64.0744 45.8203 64.1763 45.9259 64.1763 46.0558C64.1763 46.1857 64.0744 46.2914 63.9491 46.2914Z" fill="#3F3D56"/>
<path d="M61.4804 53.2152H56.5105C56.3852 53.2152 56.2832 53.1095 56.2832 52.9797C56.2832 52.8498 56.3852 52.7441 56.5105 52.7441H61.4804C61.6057 52.7441 61.7076 52.8498 61.7076 52.9797C61.7076 53.1095 61.6057 53.2152 61.4804 53.2152Z" fill="#3F3D56"/>
<path d="M66.6159 43.7816H56.3122C56.1869 43.7816 56.085 43.6759 56.085 43.5461C56.085 43.4162 56.1869 43.3105 56.3122 43.3105H66.6159C66.7412 43.3105 66.8431 43.4162 66.8431 43.5461C66.8431 43.6759 66.7412 43.7816 66.6159 43.7816Z" fill="#3F3D56"/>
<path d="M26.6678 45.5586H9.63574C11.0633 42.2565 11.941 39.1115 10.569 36.61L26.6678 35.6426C25.8633 39.0196 25.7649 42.3337 26.6678 45.5586Z" fill="#FFB6B6"/>
<path d="M32.5333 73.0835H20.012C19.9215 73.0835 19.8389 73.0299 19.7994 72.9454L19.7231 72.7824L18.0592 69.2419C17.952 69.0139 17.6223 69.0841 17.6105 69.3374L17.4502 72.7824L17.4469 72.8507C17.4406 72.9811 17.3368 73.0835 17.2108 73.0835H4.88265C4.75808 73.0835 4.65481 72.9831 4.64663 72.8542C4.64511 72.8302 4.64363 72.8063 4.64224 72.7824C3.85508 60.1891 6.68565 51.6531 8.34564 47.8337L8.3471 47.8322C8.99919 46.3297 9.47264 45.5574 9.47264 45.5574L9.63676 45.5559H9.63821L12.9538 45.4957H12.9553L15.8919 45.4445L18.111 45.4069L19.0013 45.3903H19.0027L19.5604 45.3813L22.3329 45.3316L24.8091 45.2879L26.5868 45.2578H26.6361L26.9004 46.4396V46.4411L26.9106 46.4938V46.4953L26.9556 46.6895L26.9571 46.6955L27.0471 47.1035V47.1065L27.0529 47.1291V47.1306L27.0747 47.2285L27.0762 47.233L27.2853 48.1709L27.6237 49.696L28.0696 51.6907L28.6316 54.2229L28.9163 55.4981L29.3069 57.2549L32.7635 72.7824C32.7983 72.9362 32.6857 73.0835 32.5333 73.0835Z" fill="#2F2E41"/>
<path d="M24.2086 16.1514L17.4305 15.9062L14.7512 19.6306L13.3415 19.9479C11.2282 20.4236 9.77848 22.444 9.94687 24.6789L10.5873 40.1624L10.8778 41.9689L26.8532 44.6788L30.4454 21.2464L25.7187 19.4861L24.2086 16.1514Z" fill="#488A4C"/>
<path d="M21.7345 15.5649C25.0947 15.5649 27.8187 12.7412 27.8187 9.25801C27.8187 5.77484 25.0947 2.95117 21.7345 2.95117C18.3744 2.95117 15.6504 5.77484 15.6504 9.25801C15.6504 12.7412 18.3744 15.5649 21.7345 15.5649Z" fill="#FFB6B6"/>
<path d="M89.4899 72.4976L84.2153 70.4656C83.4242 70.1608 83.0197 69.2457 83.3137 68.4256L88.4957 53.9715C88.7897 53.1514 89.6725 52.7322 90.4636 53.037L95.7383 55.0689C96.5294 55.3737 96.9338 56.2889 96.6398 57.1089C94.6571 62.9511 92.4942 69.5155 91.4579 71.563C91.1639 72.3831 90.281 72.8024 89.4899 72.4976Z" fill="#3F3D56"/>
<path d="M95.3404 60.9671C95.3069 60.9542 95.2696 60.9719 95.2571 61.0066L94.5353 63.0201C94.5229 63.0548 94.54 63.0935 94.5734 63.1064C94.6069 63.1193 94.6443 63.1015 94.6567 63.0668L95.3785 61.0534C95.391 61.0187 95.3739 60.98 95.3404 60.9671Z" fill="#3F3D56"/>
<path d="M96.5029 57.0561L91.3211 71.5099C91.0652 72.2237 90.3199 72.6012 89.626 72.3854L89.6256 72.3853C89.6154 72.382 89.6052 72.3788 89.5947 72.3752C89.5765 72.3692 89.5585 72.3626 89.5403 72.3556C89.5403 72.3556 89.4753 72.3249 89.3567 72.2684C89.2368 72.2115 89.0626 72.1283 88.8456 72.0235C88.7804 71.9923 88.7118 71.9591 88.6394 71.9241C88.4952 71.8542 88.3369 71.7775 88.1674 71.6943C88.0998 71.6614 88.0299 71.627 87.9585 71.592C87.5937 71.4131 87.1856 71.2111 86.7564 70.9949C86.6837 70.9587 86.6106 70.9219 86.5369 70.8846C86.5177 70.8747 83.3896 68.6463 83.4501 68.4777L88.6319 54.0239C88.8984 53.2805 89.6956 52.902 90.4127 53.1782L91.1879 53.4768C91.3117 53.5245 91.3754 53.6629 91.3401 53.7951C91.3379 53.8039 91.3358 53.8128 91.3343 53.8218C91.3106 53.9592 91.3923 54.0927 91.5185 54.1413L94.243 55.1909C94.3692 55.2395 94.5152 55.1937 94.5838 55.0737C94.5883 55.0657 94.5923 55.0576 94.5962 55.0495C94.6528 54.9255 94.7882 54.8638 94.912 54.9115L95.6871 55.2101C96.4043 55.4864 96.7694 56.3127 96.5029 57.0561Z" fill="#488A4C"/>
<path d="M87.634 56.2796C87.6005 56.2667 87.5632 56.2844 87.5507 56.3191L87.3703 56.8225C87.3578 56.8572 87.3749 56.8959 87.4084 56.9088C87.4419 56.9217 87.4792 56.904 87.4917 56.8693L87.6721 56.3659C87.6846 56.3312 87.6675 56.2925 87.634 56.2796Z" fill="#3F3D56"/>
<path d="M87.0922 57.7894C87.0587 57.7765 87.0214 57.7942 87.009 57.8289L86.6593 58.8042C86.6469 58.8389 86.664 58.8776 86.6975 58.8905C86.7309 58.9033 86.7683 58.8856 86.7807 58.8509L87.1304 57.8757C87.1428 57.841 87.1257 57.8023 87.0922 57.7894Z" fill="#3F3D56"/>
<path d="M86.5961 59.1741C86.5627 59.1612 86.5253 59.179 86.5129 59.2137L86.1632 60.1889C86.1508 60.2236 86.1679 60.2623 86.2014 60.2752C86.2349 60.2881 86.2722 60.2704 86.2846 60.2357L86.6343 59.2604C86.6467 59.2257 86.6296 59.187 86.5961 59.1741Z" fill="#3F3D56"/>
<path d="M91.0879 53.6897L89.9277 53.2428C89.9213 53.2403 89.9141 53.2437 89.9117 53.2504L89.864 53.3834C89.8616 53.3901 89.8649 53.3976 89.8714 53.4001L91.0315 53.847C91.038 53.8495 91.0452 53.8461 91.0476 53.8394L91.0953 53.7064C91.0977 53.6997 91.0944 53.6922 91.0879 53.6897Z" fill="#E6E6E6"/>
<path d="M95.0143 55.372C95.0858 55.372 95.1438 55.3119 95.1438 55.2378C95.1438 55.1636 95.0858 55.1035 95.0143 55.1035C94.9427 55.1035 94.8848 55.1636 94.8848 55.2378C94.8848 55.3119 94.9427 55.372 95.0143 55.372Z" fill="#E6E6E6"/>
<path d="M95.3473 55.5009C95.4188 55.5009 95.4768 55.4408 95.4768 55.3667C95.4768 55.2925 95.4188 55.2324 95.3473 55.2324C95.2758 55.2324 95.2178 55.2925 95.2178 55.3667C95.2178 55.4408 95.2758 55.5009 95.3473 55.5009Z" fill="#E6E6E6"/>
<path d="M95.6813 55.6298C95.7528 55.6298 95.8108 55.5697 95.8108 55.4956C95.8108 55.4214 95.7528 55.3613 95.6813 55.3613C95.6097 55.3613 95.5518 55.4214 95.5518 55.4956C95.5518 55.5697 95.6097 55.6298 95.6813 55.6298Z" fill="#E6E6E6"/>
<path d="M76.5572 26.8575H72.0024C71.4163 26.8575 70.9395 26.3632 70.9395 25.7556V20.4319C70.9395 19.8244 71.4163 19.3301 72.0024 19.3301H76.5572C77.1433 19.3301 77.6201 19.8244 77.6201 20.4319V25.7556C77.6201 26.3632 77.1433 26.8575 76.5572 26.8575Z" fill="white"/>
<path d="M76.557 26.8575H72.0022C71.4161 26.8575 70.9393 26.3632 70.9393 25.7556C70.7103 23.7953 70.6472 21.9695 70.9393 20.4319C70.9393 19.8244 71.4161 19.3301 72.0022 19.3301H76.557C77.1431 19.3301 77.62 19.8244 77.62 20.4319V25.7556C77.62 26.3632 77.1431 26.8575 76.557 26.8575ZM72.0022 19.4806C71.4962 19.4806 71.0845 19.9073 71.0845 20.4319V25.7556C71.0845 26.2802 71.4962 26.7069 72.0022 26.7069H76.557C77.0631 26.7069 77.4747 26.2802 77.4747 25.7556V20.4319C77.4747 19.9073 77.0631 19.4806 76.557 19.4806H72.0022Z" fill="#3F3D56"/>
<path d="M76.0963 22.5673H72.3434C72.1842 22.5673 72.0547 22.433 72.0547 22.268C72.0547 22.103 72.1842 21.9688 72.3434 21.9688H76.0963C76.2555 21.9688 76.385 22.103 76.385 22.268C76.385 22.433 76.2555 22.5673 76.0963 22.5673Z" fill="#488A4C"/>
<path d="M76.0963 24.2235H72.3434C72.1842 24.2235 72.0547 24.0893 72.0547 23.9243C72.0547 23.7592 72.1842 23.625 72.3434 23.625H76.0963C76.2555 23.625 76.385 23.7592 76.385 23.9243C76.385 24.0893 76.2555 24.2235 76.0963 24.2235Z" fill="#488A4C"/>
<path d="M76.0963 20.911H72.3434C72.1842 20.911 72.0547 20.7768 72.0547 20.6118C72.0547 20.4467 72.1842 20.3125 72.3434 20.3125H76.0963C76.2555 20.3125 76.385 20.4467 76.385 20.6118C76.385 20.7768 76.2555 20.911 76.0963 20.911Z" fill="#488A4C"/>
<path d="M19.6664 17.5281C19.9998 18.1796 20.4475 18.6991 20.9222 19.0351L23.7199 25.4494L26.6254 23.9801L23.4745 17.6316C23.4723 17.0358 23.3085 16.3603 22.9751 15.7088C22.2135 14.2204 20.8554 13.4212 19.9418 13.9236C19.0281 14.426 18.9048 16.0398 19.6664 17.5281Z" fill="#FFB6B6"/>
<path d="M25.9657 21.5718C25.9657 21.5718 30.227 19.257 31.5491 21.6875C32.6772 23.7612 33.4923 34.1379 33.7073 37.1397C33.745 37.6665 33.6124 38.1898 33.3302 38.6298C32.4946 39.9328 30.6931 40.057 29.6983 38.8802L21.0635 21.2561L25.1593 19.2383L26.161 21.7532L25.9657 21.5718Z" fill="#488A4C"/>
<path d="M35.0765 46.3981C35.17 46.2607 35.2252 46.0932 35.2252 45.9122V30.467C35.2252 30.0009 34.8607 29.623 34.4111 29.623H11.8885C11.4389 29.623 11.0744 30.0009 11.0744 30.467V45.9122C11.0744 46.0932 11.1295 46.2607 11.2231 46.3981H8.41016V47.2078C18.1901 47.7748 28.0165 47.7748 37.8894 47.2078V46.3981H35.0765Z" fill="#3F3D56"/>
<path d="M59.275 80H54.7202C54.1341 80 53.6572 79.5058 53.6572 78.8982V73.5745C53.6572 72.9669 54.1341 72.4727 54.7202 72.4727H59.275C59.8611 72.4727 60.3379 72.9669 60.3379 73.5745V78.8982C60.3379 79.5058 59.8611 80 59.275 80Z" fill="white"/>
<path d="M59.2748 80H54.72C54.1339 80 53.6571 79.5057 53.6571 78.8982C53.4281 76.9379 53.365 75.1121 53.6571 73.5745C53.6571 72.9669 54.1339 72.4727 54.72 72.4727H59.2748C59.8609 72.4727 60.3377 72.9669 60.3377 73.5745V78.8982C60.3377 79.5057 59.8609 80 59.2748 80ZM54.72 72.6232C54.214 72.6232 53.8023 73.0499 53.8023 73.5745V78.8982C53.8023 79.4228 54.214 79.8495 54.72 79.8495H59.2748C59.7809 79.8495 60.1925 79.4228 60.1925 78.8982V73.5745C60.1925 73.0499 59.7809 72.6232 59.2748 72.6232H54.72Z" fill="#3F3D56"/>
<path d="M58.8141 75.7098H55.0612C54.902 75.7098 54.7725 75.5756 54.7725 75.4106C54.7725 75.2456 54.902 75.1113 55.0612 75.1113H58.8141C58.9733 75.1113 59.1028 75.2456 59.1028 75.4106C59.1028 75.5756 58.9733 75.7098 58.8141 75.7098Z" fill="#488A4C"/>
<path d="M58.8141 77.3661H55.0612C54.902 77.3661 54.7725 77.2318 54.7725 77.0668C54.7725 76.9018 54.902 76.7676 55.0612 76.7676H58.8141C58.9733 76.7676 59.1028 76.9018 59.1028 77.0668C59.1028 77.2318 58.9733 77.3661 58.8141 77.3661Z" fill="#488A4C"/>
<path d="M58.8141 74.0536H55.0612C54.902 74.0536 54.7725 73.9193 54.7725 73.7543C54.7725 73.5893 54.902 73.4551 55.0612 73.4551H58.8141C58.9733 73.4551 59.1028 73.5893 59.1028 73.7543C59.1028 73.9193 58.9733 74.0536 58.8141 74.0536Z" fill="#488A4C"/>
<path d="M19.5391 44.3555C18.8277 44.3594 18.1761 44.5296 17.6687 44.8096L10.8891 44.403L10.7969 47.7527L17.684 47.8045C18.1942 48.0789 18.8475 48.2419 19.5589 48.238C21.1842 48.2291 22.4973 47.3527 22.4918 46.2806C22.4863 45.2085 21.1644 44.3466 19.5391 44.3555Z" fill="#FFB6B6"/>
<path d="M13.0257 19.9586C13.0257 19.9586 7.26257 19.2929 5.79449 22.9991C4.67302 25.8303 1.75952 36.8646 0.124596 43.182C-0.473139 45.4916 1.15187 47.7785 3.45696 47.8732L13.637 48.2911L14.2258 43.6228L6.95634 42.4198L11.0228 29.7738L13.0257 19.9586Z" fill="#488A4C"/>
<path d="M27.8205 4.38822C28.1131 2.85233 26.3175 2.25581 24.9728 1.54316L23.8311 0.542206C22.6342 -0.0921064 21.2347 -0.173673 19.9768 0.317562L16.0509 1.6722C14.2689 2.36807 13.6472 4.02456 12.6203 5.68689L10.899 8.06891C9.88817 9.70533 10.1904 12.2601 10.4274 14.1877L10.5268 14.9954L9.58105 17.3397L16.8491 18.6847L18.314 15.0669L17.3999 13.3475C17.0755 12.7374 17.2053 11.9754 17.7116 11.5173C19.5329 9.86966 19.8819 7.04182 19.8819 7.04182L21.4216 8.44933C22.5405 8.8845 23.5735 9.10887 24.5218 9.12591C25.5649 9.14465 26.5056 8.91259 27.3459 8.43433L27.4938 10.7664C27.0595 13.5233 26.4112 14.1296 23.4907 16.2387L27.0057 19.8719L27.1705 18.3924C27.5623 14.8729 29.2554 12.4233 29.7138 9.59162C30.0307 7.63358 29.2991 5.65031 27.8205 4.38822Z" fill="#2F2E41"/>
</g>
<defs>
<clipPath id="clip0_1195_372">
<rect width="97" height="80" fill="white"/>
</clipPath>
</defs>
</svg>
