<svg width="100" height="100" viewBox="0 0 100 100" fill="none" xmlns="http://www.w3.org/2000/svg">
<path d="M25.2377 56.1065H0.581228C0.427131 56.1062 0.279397 56.0296 0.170434 55.8934C0.0614715 55.7571 0.000178749 55.5724 0 55.3797V18.4611C0.000178749 18.2684 0.0614715 18.0837 0.170434 17.9475C0.279397 17.8112 0.427131 17.7346 0.581228 17.7344H25.2377C25.3918 17.7346 25.5395 17.8112 25.6485 17.9475C25.7574 18.0837 25.8187 18.2684 25.8189 18.4611V55.3797C25.8187 55.5724 25.7574 55.7571 25.6485 55.8934C25.5395 56.0296 25.3918 56.1062 25.2377 56.1065ZM0.581228 18.0251C0.488769 18.0252 0.400125 18.0712 0.334747 18.1529C0.269368 18.2347 0.232594 18.3455 0.232491 18.4611V55.3797C0.232594 55.4953 0.269368 55.6062 0.334747 55.6879C0.400125 55.7697 0.488769 55.8156 0.581228 55.8158H25.2377C25.3301 55.8156 25.4188 55.7697 25.4842 55.6879C25.5495 55.6062 25.5863 55.4953 25.5864 55.3797V18.4611C25.5863 18.3455 25.5495 18.2347 25.4842 18.1529C25.4188 18.0712 25.3301 18.0252 25.2377 18.0251H0.581228Z" fill="#CACACA"/>
<path d="M21.9184 25.582H3.90039V39.5355H21.9184V25.582Z" fill="#00BFA6" fill-opacity="0.75"/>
<path d="M8.43397 44.7656H3.90039V48.254H8.43397V44.7656Z" fill="#E4E4E4"/>
<path d="M21.9183 44.7656H17.3848V48.254H21.9183V44.7656Z" fill="#E4E4E4"/>
<path d="M15.1762 44.7656H10.6426V48.254H15.1762V44.7656Z" fill="#E4E4E4"/>
<path d="M59.181 38.3721H34.5246C34.3705 38.3719 34.2228 38.2952 34.1138 38.159C34.0048 38.0227 33.9435 37.838 33.9434 37.6453V0.726744C33.9435 0.534067 34.0048 0.349345 34.1138 0.213102C34.2228 0.0768586 34.3705 0.000220429 34.5246 0H59.181C59.3351 0.000220429 59.4829 0.0768586 59.5918 0.213102C59.7008 0.349345 59.7621 0.534067 59.7623 0.726744V37.6453C59.7621 37.838 59.7008 38.0227 59.5918 38.159C59.4829 38.2952 59.3351 38.3719 59.181 38.3721ZM34.5246 0.290698C34.4321 0.290824 34.3435 0.336805 34.2781 0.418552C34.2127 0.500299 34.176 0.611136 34.1759 0.726744V37.6453C34.176 37.761 34.2127 37.8718 34.2781 37.9535C34.3435 38.0353 34.4321 38.0813 34.5246 38.0814H59.181C59.2735 38.0813 59.3621 38.0353 59.4275 37.9535C59.4929 37.8718 59.5297 37.761 59.5298 37.6453V0.726744C59.5297 0.611136 59.4929 0.500299 59.4275 0.418552C59.3621 0.336805 59.2735 0.290824 59.181 0.290698H34.5246Z" fill="#CACACA"/>
<path d="M59.4759 61.7726H34.8195C34.6654 61.7724 34.5177 61.6958 34.4087 61.5595C34.2998 61.4233 34.2385 61.2386 34.2383 61.0459V50.1447C34.2385 49.952 34.2998 49.7673 34.4087 49.6311C34.5177 49.4948 34.6654 49.4182 34.8195 49.418H59.4759C59.63 49.4182 59.7778 49.4948 59.8867 49.6311C59.9957 49.7673 60.057 49.952 60.0572 50.1447V61.0459C60.057 61.2386 59.9957 61.4233 59.8867 61.5595C59.7778 61.6958 59.63 61.7724 59.4759 61.7726ZM34.8195 49.7087C34.727 49.7088 34.6384 49.7548 34.573 49.8365C34.5076 49.9183 34.4709 50.0291 34.4708 50.1447V61.0459C34.4709 61.1615 34.5076 61.2723 34.573 61.3541C34.6384 61.4358 34.727 61.4818 34.8195 61.4819H59.4759C59.5684 61.4818 59.657 61.4358 59.7224 61.3541C59.7878 61.2723 59.8246 61.1615 59.8247 61.0459V50.1447C59.8246 50.0291 59.7878 49.9183 59.7224 49.8365C59.657 49.7548 59.5684 49.7088 59.4759 49.7087H34.8195Z" fill="#CACACA"/>
<path d="M54.4092 24.7812H39.2973C38.5269 24.7812 37.9023 25.5621 37.9023 26.5254V26.5254C37.9023 27.4887 38.5269 28.2696 39.2973 28.2696H54.4092C55.1796 28.2696 55.8042 27.4887 55.8042 26.5254C55.8042 25.5621 55.1796 24.7812 54.4092 24.7812Z" fill="#E4E4E4"/>
<path d="M54.4092 30.3047H39.2973C38.5269 30.3047 37.9023 31.0856 37.9023 32.0489C37.9023 33.0122 38.5269 33.7931 39.2973 33.7931H54.4092C55.1796 33.7931 55.8042 33.0122 55.8042 32.0489C55.8042 31.0856 55.1796 30.3047 54.4092 30.3047Z" fill="#E4E4E4"/>
<path d="M46.8535 20.8572C50.4487 20.8572 53.3633 17.213 53.3633 12.7177C53.3633 8.22232 50.4487 4.57812 46.8535 4.57812C43.2583 4.57812 40.3438 8.22232 40.3438 12.7177C40.3438 17.213 43.2583 20.8572 46.8535 20.8572Z" fill="#00BFA6" fill-opacity="0.75"/>
<path d="M54.1801 53.8516H47.5541C46.7837 53.8516 46.1592 54.6325 46.1592 55.5957C46.1592 56.559 46.7837 57.3399 47.5541 57.3399H54.1801C54.9505 57.3399 55.5751 56.559 55.5751 55.5957C55.5751 54.6325 54.9505 53.8516 54.1801 53.8516Z" fill="#E4E4E4"/>
<path d="M41.2771 58.7938C42.6895 58.7938 43.8345 57.3621 43.8345 55.5961C43.8345 53.8301 42.6895 52.3984 41.2771 52.3984C39.8647 52.3984 38.7197 53.8301 38.7197 55.5961C38.7197 57.3621 39.8647 58.7938 41.2771 58.7938Z" fill="#00BFA6" fill-opacity="0.75"/>
<path d="M99.8833 100.002H55.5938C55.563 100.002 55.5334 99.9863 55.5116 99.9591C55.4898 99.9318 55.4775 99.8948 55.4775 99.8563C55.4775 99.8177 55.4898 99.7808 55.5116 99.7535C55.5334 99.7263 55.563 99.7109 55.5938 99.7109H99.8833C99.9142 99.7109 99.9437 99.7263 99.9655 99.7535C99.9873 99.7808 99.9996 99.8177 99.9996 99.8563C99.9996 99.8948 99.9873 99.9318 99.9655 99.9591C99.9437 99.9863 99.9142 100.002 99.8833 100.002Z" fill="#CACACA"/>
<path d="M86.7636 68.6127C86.6825 68.4677 86.6278 68.3021 86.6034 68.1278C86.579 67.9534 86.5854 67.7745 86.6223 67.6036C86.6592 67.4327 86.7256 67.274 86.8168 67.1387C86.908 67.0034 87.0219 66.8947 87.1503 66.8203L86.8081 62.5391L88.3914 63.5782L88.4737 67.4844C88.5593 67.7625 88.5603 68.0703 88.4766 68.3493C88.3929 68.6283 88.2303 68.8593 88.0195 68.9983C87.8087 69.1374 87.5644 69.175 87.3329 69.1039C87.1015 69.0329 86.8989 68.8581 86.7636 68.6127Z" fill="#FFB6B6"/>
<path d="M72.8964 68.0073C72.8153 67.8622 72.7606 67.6967 72.7362 67.5223C72.7118 67.348 72.7182 67.169 72.7551 66.9982C72.792 66.8273 72.8584 66.6686 72.9496 66.5332C73.0408 66.3979 73.1547 66.2892 73.2831 66.2148L72.9409 61.9336L74.5242 62.9727L74.6065 66.8789C74.6921 67.1571 74.6932 67.4648 74.6094 67.7438C74.5257 68.0228 74.3631 68.2538 74.1523 68.3929C73.9415 68.5319 73.6972 68.5695 73.4657 68.4984C73.2343 68.4274 73.0317 68.2526 72.8964 68.0073Z" fill="#FFB6B6"/>
<path d="M83.458 98.217H82.2775L81.7158 92.5234H83.4582L83.458 98.217Z" fill="#FFB6B6"/>
<path d="M83.7597 99.6473L79.9531 99.6471V99.5869C79.9532 99.0956 80.1093 98.6244 80.3871 98.277C80.665 97.9296 81.0418 97.7344 81.4348 97.7344L83.7598 97.7345L83.7597 99.6473Z" fill="#2F2E41"/>
<path d="M74.6953 98.217H73.5147L72.9531 92.5234H74.6954L74.6953 98.217Z" fill="#FFB6B6"/>
<path d="M74.997 99.6473L71.1904 99.6471V99.5869C71.1905 99.0956 71.3466 98.6244 71.6244 98.277C71.9023 97.9296 72.2791 97.7344 72.6721 97.7344L74.9971 97.7345L74.997 99.6473Z" fill="#2F2E41"/>
<path d="M82.6082 39.018C84.119 37.9853 84.6742 35.6168 83.8483 33.7278C83.0225 31.8387 81.1282 31.1445 79.6174 32.1771C78.1066 33.2097 77.5513 35.5783 78.3772 37.4673C79.2031 39.3564 81.0974 40.0506 82.6082 39.018Z" fill="#FFB8B8"/>
<path d="M74.2322 65.9844L73.6545 67.1287L72.499 96.9278L74.9064 96.8075L79.7211 71.6432L81.647 97.0482L83.7654 97.1687L85.4843 67.6249L74.2322 65.9844Z" fill="#2F2E41"/>
<path d="M86.8466 43.471L82.8986 40.8221L78.469 40.4609L74.5657 43.471C74.5657 43.471 77.9875 56.1133 74.2321 63.4578L73.6543 66.9495L85.5948 68.0331C85.5948 68.0331 84.8244 52.3808 85.8837 50.4544C86.9429 48.5279 86.8466 43.471 86.8466 43.471Z" fill="#3F3D56"/>
<path d="M85.4843 44.1287L86.8468 43.4727C86.8468 43.4727 89.2542 46.1215 89.1579 52.5029C89.0616 58.8842 88.5414 65.9879 88.5414 65.9879L86.7505 66.3492L85.7876 55.9945L84.4395 46.9643L85.4843 44.1287Z" fill="#3F3D56"/>
<path d="M75.9791 44.1287L74.6166 43.4727C74.6166 43.4727 72.2093 46.1215 72.3055 52.5029C72.4018 58.8842 72.922 65.9879 72.922 65.9879L74.7129 66.3492L75.6758 55.9945L77.024 46.9643L75.9791 44.1287Z" fill="#3F3D56"/>
<path d="M83.3669 31.6655C83.0939 31.3306 82.767 31.0724 82.4078 30.908C82.0487 30.7437 81.6656 30.6769 81.2842 30.7124C80.6132 30.7801 80.5695 30.8005 79.9668 31.1753C79.5912 31.3975 79.2264 31.647 78.8741 31.9225C78.8709 31.7435 78.2762 31.0584 78.1799 31.1911C78.0837 31.3237 78.4281 32.1855 78.3512 32.3365C78.2742 32.4876 77.5786 31.9474 77.5059 31.7931C78.0432 32.7197 78.7528 34.5516 78.5825 35.6763C78.7001 35.5104 78.8544 35.3917 79.0259 35.3354C79.1973 35.279 79.3783 35.2875 79.546 35.3597C79.7136 35.4319 79.8604 35.5646 79.9677 35.741C80.0751 35.9174 80.1382 36.1297 80.1491 36.351C80.1871 37.1199 79.6171 37.9629 79.9898 38.5764C80.203 38.9274 80.6091 38.9566 80.9616 38.9545L83.5695 38.591C84.1299 37.4745 84.4792 36.589 84.6316 35.2847C84.7841 33.9805 84.1146 32.5947 83.3669 31.6655Z" fill="#2F2E41"/>
</svg>
